<svg width="32" height="22" viewBox="0 0 32 22" fill="none" xmlns="http://www.w3.org/2000/svg">
<path d="M15.2 17.2386L15.856 21.0729C15.44 21.2929 14.768 21.4971 13.872 21.6857C12.96 21.89 11.888 22 10.656 22C7.12 21.9371 4.464 20.9 2.688 18.92C0.896 16.9243 0 14.3943 0 11.33C0.08 7.7 1.152 4.91857 3.2 2.97C5.312 1.00571 7.936 0 11.104 0C12.304 0 13.344 0.11 14.208 0.298571C15.072 0.487143 15.712 0.691429 16.128 0.927143L15.2 4.84L13.504 4.30571C12.864 4.14857 12.128 4.07 11.28 4.07C9.424 4.05429 7.888 4.63571 6.688 5.79857C5.472 6.94571 4.848 8.70571 4.8 11.0471C4.8 13.1843 5.392 14.85 6.528 16.0757C7.664 17.2857 9.264 17.9143 11.312 17.93L13.44 17.7414C14.128 17.6157 14.704 17.4429 15.2 17.2386ZM19.024 22L20 15.7143H17.6L18.144 12.5714H20.544L21.056 9.42857H18.656L19.2 6.28571H21.6L22.576 0H25.776L24.8 6.28571H26.4L27.376 0H30.576L29.6 6.28571H32L31.456 9.42857H29.056L28.544 12.5714H30.944L30.4 15.7143H28L27.024 22H23.824L24.8 15.7143H23.2L22.224 22H19.024ZM23.744 12.5714H25.344L25.856 9.42857H24.256L23.744 12.5714Z" fill="#4DFEAD"/>
</svg>
