<svg width="21" height="32" viewBox="0 0 21 32" fill="none" xmlns="http://www.w3.org/2000/svg">
<path fill-rule="evenodd" clip-rule="evenodd" d="M4.58484 11.5314C2.05278 11.5314 0.000284332 13.5317 0.000284332 15.9995C0.000284332 18.4674 2.05287 20.468 4.58484 20.468H9.16935V16.0896C9.169 16.0597 9.16882 16.0296 9.16882 15.9995C9.16882 15.9696 9.169 15.9395 9.16935 15.9095V11.5314H4.58484ZM9.16935 8.93685H4.58484C2.05287 8.93685 0.000284332 6.93626 0.000284332 4.46841C0.000284332 2.00058 2.05287 0 4.58484 0H9.16935V8.93685ZM11.8314 0V8.93678L16.4148 8.93655C18.9467 8.93655 21 6.93618 21 4.46841C21 2.00058 18.9474 0 16.4153 0H11.8314ZM16.415 11.5311C13.9077 11.5314 11.8706 13.4933 11.8314 15.9279V16.0711C11.8706 18.506 13.9079 20.468 16.4153 20.468C18.9474 20.468 21 18.4674 21 15.9995C21 13.5317 18.9469 11.5312 16.415 11.5311ZM4.58484 23.0626C2.05294 23.0626 0 25.0635 0 27.5315C0 29.9994 2.05256 32 4.58455 32C7.1166 32 9.16918 29.9994 9.16918 27.5315L9.16935 23.0626H4.58484Z" fill="#4DFEAD"/>
</svg>
