<svg width="32" height="32" viewBox="0 0 32 32" fill="none" xmlns="http://www.w3.org/2000/svg">
<path d="M31.3929 14.5735L17.4212 0.602827C17.0477 0.230462 16.5324 0 15.9627 0C15.3929 0 14.8776 0.230462 14.5041 0.602827L11.6095 3.5028L15.2894 7.18272C15.5241 7.10056 15.7941 7.05361 16.0758 7.05361C17.4297 7.05361 18.5265 8.15044 18.5265 9.5044C18.5265 9.79141 18.4775 10.0656 18.3868 10.3217L18.3921 10.3046L21.9365 13.8512C22.1734 13.7669 22.4476 13.7178 22.7325 13.7178C24.0854 13.7178 25.1822 14.8146 25.1822 16.1675C25.1822 17.5204 24.0854 18.6172 22.7325 18.6172C21.3796 18.6172 20.2827 17.5204 20.2827 16.1675C20.2827 15.8336 20.35 15.5156 20.4705 15.2254L20.4641 15.2414L17.1459 11.9403V20.6402C17.9611 21.0509 18.5105 21.881 18.5105 22.8392C18.5105 24.1942 17.4116 25.2931 16.0565 25.2931C14.7015 25.2931 13.6026 24.1942 13.6026 22.8392C13.6026 22.1627 13.8757 21.5513 14.3185 21.1075C14.5436 20.8824 14.8114 20.6999 15.1091 20.5719L15.1251 20.5655V11.7802C14.2267 11.4025 13.6079 10.5287 13.6079 9.51187C13.6079 9.17045 13.6772 8.84609 13.8031 8.55055L13.7967 8.56655L10.1808 4.93358L0.599627 14.5084C0.228328 14.8829 0 15.3982 0 15.968C0 16.5377 0.229394 17.0531 0.600693 17.4276L14.5735 31.3961C14.9459 31.7695 15.4612 32 16.0309 32C16.6007 32 17.115 31.7695 17.4884 31.3961L31.395 17.4895C31.7685 17.1171 32 16.6007 32 16.032C32 15.4633 31.7685 14.9469 31.395 14.5746L31.3929 14.5735Z" fill="#4DFEAD"/>
</svg>
