<svg width="32" height="25" viewBox="0 0 32 25" fill="none" xmlns="http://www.w3.org/2000/svg">
<path d="M9.48148 17.3333L14.3478 15.9881L15.0054 8.72619H6.34889L6.13367 6.30952H15.2206L15.4597 3.94048H3.50325L4.17281 11.0952H12.4108L12.1358 14.1667L9.48148 14.881L6.82714 14.1667L6.65975 12.1905H4.26846L4.6152 15.9881L9.48148 17.3333ZM0 0H18.963L17.2532 19.2857L9.48148 21.4286L1.70978 19.2857L0 0Z" fill="#4DFEAD"/>
<path d="M32 5.95238L30.4442 23.148L23.7036 25L16.9629 23.148L15.4074 5.95238H32ZM28.865 9.44884H18.4385L18.69 11.5254H23.9788L18.8731 13.6952L19.0331 15.725L26.1975 15.7485L26.0375 18.4549L23.6975 19.1272V19.125L23.6783 19.1305L21.4184 18.5483L21.2813 16.8684H19.1703L19.4447 20.1116L23.6976 21.3949V21.3926L23.7052 21.3949L27.9353 20.1349L28.4841 13.6952H23.6858L23.6976 13.69L28.6594 11.5254L28.865 9.44884Z" fill="#4DFEAD"/>
</svg>
