<svg width="26" height="36" viewBox="0 0 26 36" fill="none" xmlns="http://www.w3.org/2000/svg">
<path d="M20.9403 7.34675C20.9403 7.34675 8.87288 10.4259 14.6596 17.2144C16.3709 19.2132 14.2185 21.0139 14.2185 21.0139C14.2185 21.0139 18.5409 18.763 16.5297 15.8819C14.6596 13.2349 13.2482 11.9205 20.9403 7.34675ZM13.0541 9.50755C20.1993 3.7454 16.5297 0 16.5297 0C18.0116 5.94222 11.3075 7.74289 8.89052 11.4523C7.23214 13.9732 9.70207 16.6922 13.0012 19.8074C11.7486 16.7463 7.32035 14.1173 13.0541 9.50755ZM8.36125 27.8564C2.92741 29.405 11.678 32.5922 18.5762 29.5851C17.9058 29.315 17.253 28.9908 16.6355 28.6127C14.2362 29.1709 11.7662 29.2789 9.33158 28.9368C7.02043 28.6487 8.36125 27.8564 8.36125 27.8564ZM17.747 24.8313C14.6596 25.5155 11.4663 25.6776 8.32597 25.2995C6.01482 25.0654 7.53206 23.9129 7.53206 23.9129C1.53366 25.9477 10.8488 28.2346 19.176 25.7496C18.6644 25.5515 18.1704 25.2094 17.747 24.8313ZM23.7807 30.7735C23.7807 30.7735 24.7863 31.6198 22.7045 32.2681C18.682 33.4925 6.06775 33.8707 2.57456 32.3221C1.32195 31.7639 3.68603 30.9896 4.42701 30.8275C4.83278 30.7195 5.23856 30.6835 5.64433 30.6835C4.25058 29.7111 -3.4062 32.6642 1.78065 33.4925C15.8416 35.8334 27.4326 32.4121 23.7807 30.7735ZM18.9467 22.0222C19.4583 21.6801 20.0052 21.392 20.5698 21.1399C20.5698 21.1399 17.9058 21.6081 15.2418 21.8602C12.419 22.1483 9.57858 22.1843 6.7558 21.9682C2.60985 21.41 9.03166 19.8074 9.03166 19.8074C7.091 19.8074 5.18563 20.2756 3.45668 21.1579C-0.160004 22.9586 12.4543 23.7689 18.9467 22.0222ZM20.5345 26.3799C20.4992 26.4519 20.4639 26.5059 20.3933 26.5599C29.2322 24.201 25.986 18.2048 21.7518 19.6994C21.5224 19.8074 21.3284 19.9515 21.2049 20.1495C21.4519 20.0595 21.6989 19.9875 21.9635 19.9335C24.0806 19.5013 27.1151 22.8685 20.5345 26.3799ZM20.7638 34.681C15.4535 35.6173 10.0196 35.6893 4.674 34.9331C4.674 34.9331 5.48555 35.6173 9.6315 35.8874C15.9828 36.3016 25.739 35.6533 25.9683 32.5922C26.0213 32.6102 25.5626 33.7626 20.7638 34.681Z" fill="#4DFEAD"/>
</svg>
