<svg width="32" height="32" viewBox="0 0 32 32" fill="none" xmlns="http://www.w3.org/2000/svg">
<path d="M0 0H32V32H0V0ZM8.40889 26.7378C9.12 28.2489 10.5244 29.4933 12.9244 29.4933C15.5911 29.4933 17.4222 28.0711 17.4222 24.96V14.6844H14.4V24.8889C14.4 26.4178 13.7778 26.8089 12.8 26.8089C11.7689 26.8089 11.3422 26.0978 10.8622 25.2622L8.40889 26.7378ZM19.04 26.4178C19.9289 28.16 21.7244 29.4933 24.5333 29.4933C27.3778 29.4933 29.5111 28.0178 29.5111 25.2978C29.5111 22.7911 28.0711 21.6711 25.5111 20.5689L24.7644 20.2489C23.4667 19.6978 22.9156 19.3244 22.9156 18.4356C22.9156 17.7067 23.4667 17.1378 24.3556 17.1378C25.2089 17.1378 25.7778 17.5111 26.2933 18.4356L28.6222 16.8889C27.6444 15.1822 26.2578 14.5244 24.3556 14.5244C21.6711 14.5244 19.9467 16.2311 19.9467 18.4889C19.9467 20.9422 21.3867 22.0978 23.5556 23.0222L24.3022 23.3422C25.6889 23.9467 26.5067 24.32 26.5067 25.3511C26.5067 26.2044 25.7067 26.8267 24.4622 26.8267C22.9867 26.8267 22.1333 26.0622 21.4933 24.9956L19.04 26.4178Z" fill="#4DFEAD"/>
</svg>
