<svg width="32" height="32" viewBox="0 0 32 32" fill="none" xmlns="http://www.w3.org/2000/svg">
<path d="M15.848 13.0253C18.044 13.0253 19.7813 13.6067 21.064 14.768C22.3453 15.9307 22.9867 17.5147 22.9867 19.5227C22.9867 21.848 22.256 23.6653 20.796 24.976C19.3453 26.2787 17.2787 26.9293 14.596 26.9293C12.1613 26.9293 10.2493 26.5373 8.85867 25.752V22.5787C9.72808 23.0603 10.6614 23.4163 11.6307 23.636C12.6733 23.884 13.6427 24.0093 14.5373 24.0093C16.116 24.0093 17.3187 23.656 18.1427 22.9507C18.968 22.244 19.38 21.212 19.38 19.8507C19.38 17.248 17.72 15.9453 14.4027 15.9453C13.936 15.9453 13.3587 15.996 12.6733 16.0947C11.988 16.184 11.3867 16.288 10.8707 16.408L9.30533 15.484L10.14 4.844H21.4667V7.95733H13.2253L12.732 13.352C13.0813 13.2933 13.5027 13.224 13.9987 13.144C14.5053 13.064 15.1227 13.024 15.848 13.024V13.0253ZM16 0C7.164 0 0 7.164 0 16C0.000534012 18.9749 0.830573 21.8907 2.39687 24.4198C3.96317 26.949 6.20367 28.9913 8.86667 30.3173V25.4173H9.05067C9.064 25.4227 15.5307 28.7053 19.7453 25.4173C23.9627 22.1267 21.9053 17.704 21.1853 16.6747C20.4653 15.6467 16.7627 13.8973 13.5747 14.2067C10.3867 14.5147 10.3867 14.6173 10.3867 14.6173L11.2093 5.156L21.4587 5.05733V0.992C19.7103 0.345827 17.8626 0.0101119 15.9987 0H16ZM21.4587 0.992V5.05733L11.2093 5.156L10.3867 14.6173C10.3867 14.6173 10.3867 14.5147 13.5747 14.2067C16.764 13.8973 20.4667 15.6467 21.1853 16.6747C21.9053 17.704 23.9627 22.1267 19.7453 25.4173C15.532 28.7067 9.06 25.4227 9.05067 25.4173H8.86667V30.3173C11.0826 31.4228 13.5236 31.9988 16 32C24.8373 32 32 24.836 32 16C31.995 12.7796 31.0189 9.63563 29.1992 6.97865C27.3796 4.32167 24.8009 2.27524 21.8 1.10667C21.6873 1.06665 21.5726 1.02842 21.4587 0.992Z" fill="#4DFEAD"/>
</svg>
