<svg width="32" height="32" viewBox="0 0 32 32" fill="none" xmlns="http://www.w3.org/2000/svg">
<path fill-rule="evenodd" clip-rule="evenodd" d="M18.8489 0C18.6289 0.00249764 18.4109 0.0411081 18.2034 0.114286C20.0471 1.32343 17.883 3.07886 18.8901 4.57143C18.8196 4.07181 18.899 3.56254 19.1182 3.10793C19.3373 2.65332 19.6865 2.27375 20.1215 2.01714C20.4477 1.74629 20.656 1.64914 20.5862 1.20114C20.4763 0.467429 19.4966 0 18.8489 0ZM21.4811 0.473143C21.227 1.75657 20.9089 1.80343 19.967 2.62971C19.5993 2.91865 19.3397 3.32282 19.2301 3.77708C19.1204 4.23133 19.1672 4.70922 19.3627 5.13371C15.4717 3.62514 10.4842 2.71314 6.82771 5.32343C5.51275 6.26171 4.70935 7.60914 3.08768 8.15886C2.03938 8.51657 1.00938 8.41143 0.354764 9.44914C0.114515 9.74879 -0.010989 10.1241 0.000755514 10.5078C0.0125 10.8915 0.160725 11.2584 0.418852 11.5429C0.613407 11.7429 0.991072 11.8709 1.14672 12.0743C1.23713 12.1886 1.23484 12.3029 1.32067 12.4549C1.472 12.8093 1.69127 13.1307 1.96613 13.4011C2.13322 13.5394 2.71231 13.6743 2.81073 13.8217C2.93318 14.0057 2.61274 14.736 2.88168 14.8503C3.06365 14.9337 3.59353 14 3.64503 13.9177C3.53974 14.6526 3.40126 15.9566 4.22869 14.8709C4.62123 14.3554 4.64526 14.1851 5.30561 14.0709C6.60887 13.848 7.94425 13.8972 9.22748 14.2156C10.5107 14.5339 11.7139 15.1145 12.7612 15.9205C13.8085 16.7265 14.6771 17.7406 15.3122 18.8987C15.9474 20.0568 16.3352 21.3338 16.4513 22.6491C16.3277 22.0777 15.5804 21.1634 14.8846 21.3806C14.5881 21.472 14.4783 21.9829 14.2837 22.2789C14.0381 22.6544 13.7349 22.9892 13.3853 23.2709C13.445 22.7168 13.4172 22.1569 13.3029 21.6114C13.0947 22.4663 12.6769 23.8846 11.6252 23.6549C11.2748 23.6014 10.9466 23.4507 10.6778 23.22C10.4091 22.9892 10.2107 22.6877 10.1054 22.3497C9.96919 21.4811 10.8882 20.4629 9.41071 20.3909C6.44661 20.2457 7.13213 24.5989 8.88198 25.7337C8.47982 25.7781 8.08753 25.8874 7.72037 26.0571C8.83105 26.7017 10.0825 27.0656 11.3661 27.1173C12.6496 27.1689 13.9264 26.9068 15.0854 26.3537C16.2444 25.8005 17.2507 24.9731 18.0166 23.9433C18.7826 22.9135 19.2852 21.7124 19.4806 20.4446C19.8882 22.2993 19.6264 24.2382 18.7413 25.9189C18.3709 26.6214 17.8963 27.2641 17.3337 27.8251C16.9903 28.168 16.3105 28.5451 16.0874 28.9006C17.4763 28.7172 18.8336 28.345 20.1215 27.7943C18.7884 29.6083 17.0166 31.0553 14.9715 32C17.1674 31.8448 19.2901 31.1462 21.1482 29.9672C23.0063 28.7883 24.5413 27.1661 25.6148 25.2469C25.2727 27.1664 24.5128 28.9875 23.3889 30.5817C24.9006 29.5711 26.1868 28.2592 27.1666 26.7285C28.1464 25.1978 28.7986 23.4813 29.0825 21.6869C29.3637 23.0005 29.4444 24.3491 29.3217 25.6869C30.5639 23.9639 31.4032 21.9846 31.7777 19.8947C32.1523 17.8048 32.0525 15.6577 31.4858 13.6114C31.0521 12.0208 30.4017 10.4973 29.5528 9.08343C29.2243 8.53247 28.8648 8.00057 28.4759 7.49029C28.3237 7.29257 27.51 6.56914 27.51 6.34743C27.5031 6.36952 27.4974 6.36952 27.4928 6.34743C27.4928 10.08 23.4873 12.4171 20.133 11.448C21.4314 11.3462 22.6563 10.8051 23.6052 9.91409C24.554 9.02306 25.1701 7.83543 25.3516 6.54743C25.5047 5.24498 25.2034 3.92965 24.4986 2.82316C23.7938 1.71667 22.7273 0.886695 21.4811 0.473143Z" fill="#4DFEAD"/>
</svg>
