<svg width="32" height="32" viewBox="0 0 32 32" fill="none" xmlns="http://www.w3.org/2000/svg">
<path d="M17.061 21.3847L22.2244 18.3618V12.3253L17.061 15.3431V21.3847ZM17.5502 21.6693L22.2244 24.4014V18.9403L17.5502 21.6744V21.6693ZM21.9433 11.2545V5.79341L17.2691 8.52043L21.9433 11.2485V11.2545ZM16.7799 8.81117L11.6104 11.8299L16.7799 14.8528L21.9433 11.8299L16.7799 8.81117ZM16.2846 8.52043L11.6104 5.79341V11.2545L16.2846 8.52043ZM22.7197 18.0711L27.3888 15.3431L22.7197 12.611V18.0711ZM16.4977 21.3847V15.3431L11.3283 12.3253V18.3618L16.4977 21.3847ZM10.8341 12.61L6.16489 15.342L10.8341 18.0701V12.61ZM11.3293 18.9413V24.4024L16.0035 21.6703L11.3293 18.9413ZM26.6905 0H5.30949C2.38712 0 0 2.38969 0 5.30716V26.6928C0 29.6154 2.38612 32 5.30949 32H19.9474L15.9975 22.4037L13.1322 28.4656H5.30949C4.35204 28.4656 3.53766 27.6522 3.53766 26.6938V5.30818C3.53766 4.35291 4.35104 3.54149 5.30949 3.54149H26.6905C27.65 3.54149 28.4623 4.35291 28.4623 5.30818V26.6938C28.4623 27.6532 27.65 28.4656 26.6905 28.4656H22.0523L23.506 32H26.6905C29.6079 32 32 29.6164 32 26.6928V5.30716C32 2.38969 29.6079 0 26.6905 0Z" fill="#4DFEAD"/>
</svg>
