<svg width="32" height="28" viewBox="0 0 32 28" fill="none" xmlns="http://www.w3.org/2000/svg">
<path d="M16 11.2486C17.533 11.2486 18.7833 12.4715 18.7833 14C18.7833 15.4558 17.533 16.6931 16 16.6931C14.467 16.6931 13.2167 15.4558 13.2167 14C13.2167 12.4715 14.467 11.2486 16 11.2486ZM9.10884 25.646C10.0465 26.1992 12.1005 25.3549 14.467 23.1712C13.693 22.3123 12.934 21.3807 12.2195 20.4053C10.9991 20.2888 9.79349 20.1142 8.64744 19.8812C7.88837 22.9965 8.17116 25.1365 9.10884 25.646ZM10.1656 17.29L9.73395 16.5476C9.57023 16.9697 9.40651 17.3919 9.30233 17.7995C9.70419 17.8869 10.1507 17.9596 10.6121 18.0324C10.4633 17.785 10.3144 17.5375 10.1656 17.29ZM19.8995 16.1836L21.1051 14L19.8995 11.8164C19.453 11.0448 18.9767 10.3606 18.5451 9.67642C17.7414 9.63275 16.893 9.63275 16 9.63275C15.107 9.63275 14.2586 9.63275 13.4549 9.67642C13.0233 10.3606 12.547 11.0448 12.1005 11.8164L10.8949 14L12.1005 16.1836C12.547 16.9552 13.0233 17.6394 13.4549 18.3236C14.2586 18.3673 15.107 18.3673 16 18.3673C16.893 18.3673 17.7414 18.3673 18.5451 18.3236C18.9767 17.6394 19.453 16.9552 19.8995 16.1836ZM16 6.40098C15.7172 6.72125 15.4195 7.05607 15.1219 7.44912C15.4195 7.44912 15.7023 7.44912 16 7.44912C16.2977 7.44912 16.5805 7.44912 16.8781 7.44912C16.5805 7.05607 16.2828 6.72125 16 6.40098ZM16 21.599C16.2828 21.2788 16.5805 20.9439 16.8781 20.5509C16.5805 20.5509 16.2977 20.5509 16 20.5509C15.7023 20.5509 15.4195 20.5509 15.1219 20.5509C15.4195 20.9439 15.7172 21.2788 16 21.599ZM22.8763 2.354C21.9535 1.80081 19.8995 2.64515 17.533 4.82877C18.307 5.68766 19.066 6.61935 19.7805 7.5947C21.0009 7.71116 22.2065 7.88585 23.3526 8.11877C24.1116 5.00346 23.8288 2.86351 22.8763 2.354ZM21.8344 10.71L22.266 11.4524C22.4298 11.0303 22.5935 10.6081 22.6977 10.2005C22.2958 10.1131 21.8493 10.0404 21.3879 9.96757C21.5367 10.215 21.6856 10.4625 21.8344 10.71ZM23.9926 0.446963C26.1805 1.66979 26.4186 4.887 25.4958 8.64284C29.2763 9.73465 32 11.5398 32 14C32 16.4602 29.2763 18.2654 25.4958 19.3572C26.4186 23.113 26.1805 26.3302 23.9926 27.553C21.8195 28.7759 18.8577 27.3783 16 24.7143C13.1423 27.3783 10.1805 28.7759 7.99256 27.553C5.81953 26.3302 5.5814 23.113 6.50419 19.3572C2.72372 18.2654 0 16.4602 0 14C0 11.5398 2.72372 9.73465 6.50419 8.64284C5.5814 4.887 5.81953 1.66979 7.99256 0.446963C10.1805 -0.775867 13.1423 0.621653 16 3.28568C18.8577 0.621653 21.8195 -0.775867 23.9926 0.446963ZM23.5609 14C24.067 15.0918 24.5135 16.1836 24.8856 17.29C28.0112 16.3729 29.7674 15.0627 29.7674 14C29.7674 12.9373 28.0112 11.6271 24.8856 10.71C24.5135 11.8164 24.067 12.9082 23.5609 14ZM8.43907 14C7.93302 12.9082 7.48651 11.8164 7.11442 10.71C3.98884 11.6271 2.23256 12.9373 2.23256 14C2.23256 15.0627 3.98884 16.3729 7.11442 17.29C7.48651 16.1836 7.93302 15.0918 8.43907 14ZM21.8344 17.29C21.6856 17.5375 21.5367 17.785 21.3879 18.0324C21.8493 17.9596 22.2958 17.8869 22.6977 17.7995C22.5935 17.3919 22.4298 16.9697 22.266 16.5476L21.8344 17.29ZM17.533 23.1712C19.8995 25.3549 21.9535 26.1992 22.8763 25.646C23.8288 25.1365 24.1116 22.9965 23.3526 19.8812C22.2065 20.1142 21.0009 20.2888 19.7805 20.4053C19.066 21.3807 18.307 22.3123 17.533 23.1712ZM10.1656 10.71C10.3144 10.4625 10.4633 10.215 10.6121 9.96757C10.1507 10.0404 9.70419 10.1131 9.30233 10.2005C9.40651 10.6081 9.57023 11.0303 9.73395 11.4524L10.1656 10.71ZM14.467 4.82877C12.1005 2.64515 10.0465 1.80081 9.10884 2.354C8.17116 2.86351 7.88837 5.00346 8.64744 8.11877C9.79349 7.88585 10.9991 7.71116 12.2195 7.5947C12.934 6.61935 13.693 5.68766 14.467 4.82877Z" fill="#4DFEAD"/>
</svg>
