<svg width="32" height="32" viewBox="0 0 32 32" fill="none" xmlns="http://www.w3.org/2000/svg">
<path d="M16 0C18.1012 0 20.1817 0.413852 22.1229 1.21793C24.0641 2.022 25.828 3.20055 27.3137 4.68629C28.7994 6.17203 29.978 7.93586 30.7821 9.87706C31.5861 11.8183 32 13.8989 32 16C32 20.2435 30.3143 24.3131 27.3137 27.3137C24.3131 30.3143 20.2435 32 16 32C13.8989 32 11.8183 31.5861 9.87706 30.7821C7.93586 29.978 6.17203 28.7994 4.68629 27.3137C1.68571 24.3131 0 20.2435 0 16C0 11.7565 1.68571 7.68687 4.68629 4.68629C7.68687 1.68571 11.7565 0 16 0ZM12.8 21.328C13.056 22.192 13.024 22.992 12.8 23.728C12.8 23.808 12.736 23.888 12.704 24C12.672 24 12.64 24.112 12.592 24.192C12.416 24.576 12.16 24.944 11.856 25.264C10.928 26.288 9.6 26.672 9.072 26.352C8.464 26 8.8 24.56 9.856 23.424C11.008 22.208 12.672 21.408 12.672 21.408L12.8 21.328ZM26.032 6.848C25.312 4 20.592 3.072 16.144 4.656C13.488 5.6 10.608 7.072 8.544 9.008C6.096 11.312 5.696 13.312 5.856 14.144C6.4 17.088 10.464 19.024 12.128 20.448V20.464C11.648 20.704 8.064 22.512 7.2 24.368C6.336 26.32 7.36 27.728 8 27.92C10.144 28.496 12.304 27.456 13.456 25.712C14.576 24.048 14.496 21.888 14 20.8C14.672 20.64 15.456 20.56 16.448 20.672C19.264 21.008 19.808 22.752 19.696 23.488C19.6 24.224 19.008 24.624 18.816 24.752C18.624 24.864 18.56 24.912 18.576 25.008C18.592 25.136 18.688 25.136 18.848 25.104C19.088 25.056 20.336 24.512 20.384 23.152C20.448 21.424 18.8 19.504 15.888 19.552C14.688 19.584 13.936 19.696 13.392 19.904L13.264 19.76C11.456 17.84 8.128 16.48 8.272 13.888C8.32 12.944 8.64 10.48 14.672 7.472C19.6 5.008 23.552 5.68 24.24 7.2C25.216 9.328 22.128 13.312 17.008 13.888C15.056 14.112 14.016 13.344 13.76 13.072C13.488 12.8 13.456 12.752 13.36 12.8C13.184 12.912 13.296 13.168 13.36 13.328C13.504 13.728 14.144 14.4 15.2 14.784C16.144 15.088 18.448 15.264 21.216 14.192C24.32 12.992 26.752 9.648 26.032 6.848Z" fill="#4DFEAD"/>
</svg>
