<svg width="32" height="32" viewBox="0 0 32 32" fill="none" xmlns="http://www.w3.org/2000/svg">
<path d="M29.0478 23.0402C25.1082 28.295 16.6963 26.5215 11.3016 26.7756C11.3016 26.7756 10.3458 26.8299 9.38528 26.9881C9.38528 26.9881 9.74907 26.8331 10.2134 26.6717C14.0013 25.36 15.7916 25.0964 18.094 23.9125C22.4181 21.6949 26.723 16.8619 27.599 11.842C25.9523 16.6702 20.9453 20.8258 16.3867 22.513C13.2674 23.6665 7.62374 24.7881 7.62215 24.7881C7.54548 24.7487 7.46941 24.7083 7.39398 24.6666C3.55658 22.7973 3.44489 14.4734 10.416 11.7909C13.4732 10.615 16.3947 11.2605 19.6992 10.4728C23.2223 9.63403 27.3038 6.98986 28.9616 3.53248C30.8205 9.05727 33.0543 17.6975 29.0478 23.0402ZM29.1148 1.82296C28.6691 2.893 28.0987 3.90657 27.4155 4.84258C25.9303 3.30983 24.1527 2.09139 22.1883 1.25954C20.2239 0.427692 18.1127 -0.000625735 15.9799 6.8612e-07C7.16741 6.8612e-07 1.74604e-06 7.17679 1.74604e-06 15.9992C-0.00102726 18.1999 0.452776 20.377 1.33287 22.3935C2.21295 24.4101 3.50028 26.2224 5.11388 27.7166L5.46491 28.0266C5.20905 27.7699 5.06544 27.4221 5.06566 27.0595C5.06589 26.6968 5.20992 26.3492 5.4661 26.0929C5.72228 25.8366 6.06963 25.6926 6.43177 25.6927C6.79391 25.6928 7.1412 25.8368 7.39727 26.0933C7.65335 26.3497 7.79724 26.6974 7.79732 27.06C7.79739 27.4226 7.65364 27.7704 7.39767 28.027C7.14171 28.2835 6.79448 28.4277 6.43234 28.4279C6.07019 28.4281 5.72279 28.2843 5.4665 28.0282L5.70425 28.239C8.57696 30.6709 12.2181 32.0036 15.9799 32C24.4014 32 31.3183 25.4367 31.9103 17.1543C32.3475 13.0978 31.1508 7.94688 29.1148 1.82296Z" fill="#4DFEAD"/>
</svg>
