<svg width="32" height="34" viewBox="0 0 32 34" fill="none" xmlns="http://www.w3.org/2000/svg">
<path d="M25.5443 16.3424C22.4818 13.2563 17.5226 13.2739 14.4774 16.36C11.4149 19.4461 11.4149 24.4435 14.4774 27.5121C17.0701 30.1073 21.0723 30.5632 24.1697 28.6168L29.5813 34L32 31.5627L26.6232 26.1093C28.5895 23.0057 28.137 18.9376 25.5443 16.3424ZM23.0908 25.0222C21.3855 26.7406 18.6362 26.7231 16.9309 25.0222C15.2431 23.3038 15.2431 20.5333 16.9483 18.8149C18.6362 17.114 21.3855 17.114 23.0908 18.8149C24.7787 20.5333 24.7787 23.3038 23.0908 25.0222ZM12.0065 29.9845C10.8755 28.8272 9.98804 27.442 9.43121 25.9165C3.94997 24.9871 0 22.3744 0 19.2883V24.5487C0 28.4239 6.22947 31.5627 13.9206 31.5627C13.2246 31.1068 12.5808 30.5807 12.0065 29.9845ZM0 10.5209V15.7813C0 18.7272 3.60196 21.2522 8.70038 22.2692C8.70038 22.1465 8.70038 22.0413 8.70038 21.9185C8.70038 20.2878 9.0484 18.6746 9.70963 17.2017C4.07178 16.3074 0 13.6596 0 10.5209ZM13.9206 0C6.22947 0 0 3.13873 0 7.01393C0 10.5209 5.22023 13.4667 11.9195 14.0279H12.0065C14.0946 11.8185 16.9831 10.5209 20.0109 10.5209C21.5943 10.5209 23.1604 10.854 24.6047 11.5028C26.397 10.6787 27.615 8.97782 27.8412 7.01393C27.8412 3.13873 21.6117 0 13.9206 0Z" fill="#4DFEAD"/>
</svg>
