<svg width="32" height="19" viewBox="0 0 32 19" fill="none" xmlns="http://www.w3.org/2000/svg">
<path d="M16 0C11.728 0 9.072 2.10583 8 6.33333C9.6 4.2275 11.472 3.43583 13.6 3.95833C14.816 4.25917 15.696 5.13 16.656 6.09583C18.224 7.67917 20 9.5 24 9.5C28.272 9.5 30.928 7.39417 32 3.16667C30.4 5.2725 28.528 6.06417 26.4 5.54167C25.184 5.24083 24.32 4.37 23.344 3.40417C21.776 1.82083 20 0 16 0ZM8 9.5C3.728 9.5 1.072 11.6058 0 15.8333C1.6 13.7275 3.472 12.9358 5.6 13.4583C6.816 13.7592 7.68 14.63 8.656 15.5958C10.224 17.1792 12 19 16 19C20.272 19 22.928 16.8942 24 12.6667C22.4 14.7725 20.528 15.5642 18.4 15.0417C17.184 14.7408 16.32 13.87 15.344 12.9042C13.776 11.3208 12 9.5 8 9.5Z" fill="#4DFEAD"/>
</svg>
