<svg width="21" height="21" viewBox="0 0 21 21" fill="none" xmlns="http://www.w3.org/2000/svg">
<path d="M10.1503 0.936523C4.66287 0.936523 0.19051 5.38652 0.19051 10.8465C0.19051 12.5965 0.652821 14.2965 1.51714 15.7965L0.110107 20.9365L5.38649 19.5565C6.84378 20.3465 8.48197 20.7665 10.1503 20.7665C15.6377 20.7665 20.1101 16.3165 20.1101 10.8565C20.1101 8.20652 19.0749 5.71652 17.1955 3.84652C15.3161 1.96652 12.8136 0.936523 10.1503 0.936523ZM10.1604 2.60652C12.3714 2.60652 14.4418 3.46652 16.0096 5.02652C17.5674 6.58652 18.4317 8.65652 18.4317 10.8565C18.4317 15.3965 14.7131 19.0865 10.1503 19.0865C8.66287 19.0865 7.20558 18.6965 5.93925 17.9365L5.63774 17.7665L2.50207 18.5865L3.33624 15.5465L3.13523 15.2265C2.31111 13.9365 1.8689 12.4065 1.8689 10.8465C1.87895 6.30652 5.58749 2.60652 10.1604 2.60652ZM6.62267 6.26652C6.46187 6.26652 6.19051 6.32652 5.95935 6.57652C5.73825 6.82652 5.08498 7.43652 5.08498 8.64652C5.08498 9.86652 5.97945 11.0365 6.09001 11.2065C6.23071 11.3765 7.85885 13.8765 10.3614 14.9365C10.9543 15.2065 11.4166 15.3565 11.7784 15.4665C12.3714 15.6565 12.9141 15.6265 13.3463 15.5665C13.8287 15.4965 14.8136 14.9665 15.0247 14.3865C15.2357 13.8065 15.2357 13.3165 15.1754 13.2065C15.1051 13.1065 14.9443 13.0465 14.693 12.9365C14.4418 12.7965 13.2156 12.1965 12.9945 12.1165C12.7634 12.0365 12.6227 11.9965 12.4317 12.2365C12.2709 12.4865 11.7885 13.0465 11.6478 13.2065C11.497 13.3765 11.3563 13.3965 11.1151 13.2765C10.8538 13.1465 10.0498 12.8865 9.10508 12.0465C8.36136 11.3865 7.8689 10.5765 7.71815 10.3265C7.59754 10.0865 7.7081 9.93652 7.8287 9.82652C7.93925 9.71652 8.10006 9.53652 8.20056 9.38652C8.33121 9.24652 8.37141 9.13652 8.45182 8.97652C8.53222 8.80652 8.49202 8.66652 8.43171 8.54652C8.37141 8.43652 7.8689 7.19652 7.65785 6.70652C7.45684 6.22652 7.25584 6.28652 7.09503 6.27652C6.95433 6.27652 6.79352 6.26652 6.62267 6.26652Z" fill="#4DFEAD"/>
</svg>
