<svg width="27" height="24" viewBox="0 0 27 24" fill="none" xmlns="http://www.w3.org/2000/svg">
<path d="M10.8 17.3333V16H1.35V21.3333C1.35 22.8133 2.5515 24 4.05 24H22.95C24.4485 24 25.65 22.8133 25.65 21.3333V16H16.2V17.3333H10.8ZM24.3 5.33333H18.9V2.66667L16.2 0H10.8L8.1 2.66667V5.33333H2.7C1.215 5.33333 0 6.53333 0 8V12C0 13.48 1.2015 14.6667 2.7 14.6667H10.8V12H16.2V14.6667H24.3C25.785 14.6667 27 13.4667 27 12V8C27 6.53333 25.785 5.33333 24.3 5.33333ZM16.2 5.33333H10.8V2.66667H16.2V5.33333Z" fill="#DAD8EA"/>
</svg>
