<svg width="51" height="45" viewBox="0 0 51 45" fill="none" xmlns="http://www.w3.org/2000/svg">
<path d="M41.9639 23.5L42.333 26.084L42.416 26.6621L42.96 26.874C43.5415 27.1011 44.0661 27.43 44.6611 27.8301L45.1045 28.1279L45.5986 27.9248L47.9727 26.9512L49.8525 30.2295L47.7939 31.8369L47.3213 32.2061L47.4248 32.7969C47.4793 33.1082 47.499 33.4087 47.499 33.75C47.499 34.0628 47.4624 34.3611 47.416 34.7588L47.3506 35.3203L47.7979 35.666L49.874 37.2705L47.9912 40.5557L45.5986 39.5752L45.1045 39.3721L44.6611 39.6699C44.0868 40.0561 43.5397 40.3818 42.9453 40.6416L42.4346 40.8643L42.3555 41.416L41.9863 44H38.2793L37.9102 41.416L37.8281 40.8379L37.2842 40.626L37.0654 40.5352C36.5595 40.3127 36.0775 40.0154 35.5967 39.6797L35.1514 39.3691L34.6475 39.5732L32.2656 40.541L30.3906 37.2695L32.4492 35.6631L32.8926 35.3174L32.8271 34.7588C32.7867 34.4123 32.7676 34.0911 32.7676 33.75C32.7676 33.4089 32.7867 33.0877 32.8271 32.7412L32.8926 32.1826L32.4492 31.8369L30.3906 30.2295L32.2656 26.958L34.6475 27.9268L35.1514 28.1309L35.5967 27.8203C36.1202 27.4548 36.7095 27.1258 37.3213 26.8584L37.832 26.6357L37.9102 26.084L38.2793 23.5H41.9639ZM40.1553 29.375C37.77 29.375 35.8086 31.334 35.8086 33.75C35.8086 36.1573 37.7167 38.125 40.1553 38.125C42.5938 38.125 44.502 36.1573 44.502 33.75C44.502 31.3339 42.5406 29.375 40.1553 29.375ZM24.5391 1C28.6246 1 32.0498 2.42481 34.8945 5.29395C37.7395 8.1634 39.1553 11.6217 39.1553 15.75V16.6426L40.042 16.7432C40.6083 16.8077 41.1494 16.9168 41.666 17.0703C41.1687 17.0242 40.6647 17 40.1553 17C30.9616 17 23.5391 24.4983 23.5391 33.75C23.5391 34.174 23.5592 34.5897 23.5938 35H12.2695C9.17274 35 6.5098 33.9691 4.29883 31.7598L4.29492 31.7568L3.89648 31.3438C1.96697 29.2515 1 26.7424 1 23.8047C1.00006 21.0943 1.80123 18.6973 3.40723 16.5791C4.99938 14.4793 7.13373 13.1426 9.70117 12.5625L10.2881 12.4307L10.4463 11.8506C11.3272 8.61394 13.0566 6.01166 15.667 4.01074C18.2814 2.0069 21.2353 1.00006 24.5391 1Z" fill="#5653F4" stroke="#5653F4" stroke-width="2"/>
</svg>
