<svg width="46" height="46" viewBox="0 0 46 46" fill="none" xmlns="http://www.w3.org/2000/svg">
<path d="M39.2393 30.7549L36.4385 33.4805L36.0645 33.8447L36.4443 34.2021L38.7422 36.3701L39.0928 36.7012L39.4355 36.3623L42.1611 33.6748L45.291 36.7881L36.7871 45.293L26.2217 34.7275L29.3516 31.5977L31.5205 33.7666L31.874 33.4111L36.874 28.3896L39.2393 30.7549ZM34.8877 18.5127L11.4121 42.0098H3.99023V34.5869L27.4658 11.0908L34.8877 18.5127ZM12.3223 3.83594L7.31934 8.86035L6.96582 9.21582L7.32227 9.56836L9.6416 11.8662L9.99609 12.2178L10.3486 11.8633L15.3271 6.84277L17.6953 9.21094L14.9736 11.915L14.6182 12.2686L16.7812 14.4316L11.3184 19.7617L0.708008 9.21094L9.21094 0.708008L12.3223 3.83594ZM34.1055 4.47266C34.7609 3.81719 35.8464 3.83059 36.4463 4.46289L36.4521 4.46875L36.458 4.47559L41.5176 9.44922H41.5186C42.1851 10.1499 42.1728 11.1622 41.5273 11.8076L41.5244 11.8105L37.8896 15.5049L30.4707 8.08594L34.1045 4.47363L34.1055 4.47266Z" fill="#5653F4" stroke="#5653F4"/>
</svg>
