<svg width="45" height="46" viewBox="0 0 45 46" fill="none" xmlns="http://www.w3.org/2000/svg">
<path d="M22.5051 31.05C20.3579 31.05 18.2987 30.2019 16.7804 28.6922C15.2621 27.1825 14.4092 25.135 14.4092 23C14.4092 20.865 15.2621 18.8175 16.7804 17.3078C18.2987 15.7981 20.3579 14.95 22.5051 14.95C24.6523 14.95 26.7115 15.7981 28.2298 17.3078C29.7481 18.8175 30.601 20.865 30.601 23C30.601 25.135 29.7481 27.1825 28.2298 28.6922C26.7115 30.2019 24.6523 31.05 22.5051 31.05ZM39.6916 25.231C39.7841 24.495 39.8535 23.759 39.8535 23C39.8535 22.241 39.7841 21.482 39.6916 20.7L44.5723 16.951C45.0118 16.606 45.1274 15.985 44.8498 15.479L40.2236 7.521C39.946 7.015 39.3215 6.808 38.8126 7.015L33.0529 9.315C31.8501 8.418 30.601 7.636 29.1438 7.061L28.2879 0.966C28.1954 0.414 27.7096 0 27.1313 0H17.8789C17.3006 0 16.8148 0.414 16.7223 0.966L15.8665 7.061C14.4092 7.636 13.1601 8.418 11.9573 9.315L6.19761 7.015C5.68873 6.808 5.06419 7.015 4.78661 7.521L0.160372 15.479C-0.140333 15.985 -0.00154586 16.606 0.437947 16.951L5.31863 20.7C5.22611 21.482 5.15671 22.241 5.15671 23C5.15671 23.759 5.22611 24.495 5.31863 25.231L0.437947 29.049C-0.00154586 29.394 -0.140333 30.015 0.160372 30.521L4.78661 38.479C5.06419 38.985 5.68873 39.169 6.19761 38.985L11.9573 36.662C13.1601 37.582 14.4092 38.364 15.8665 38.939L16.7223 45.034C16.8148 45.586 17.3006 46 17.8789 46H27.1313C27.7096 46 28.1954 45.586 28.2879 45.034L29.1438 38.939C30.601 38.341 31.8501 37.582 33.0529 36.662L38.8126 38.985C39.3215 39.169 39.946 38.985 40.2236 38.479L44.8498 30.521C45.1274 30.015 45.0118 29.394 44.5723 29.049L39.6916 25.231Z" fill="#5653F4"/>
</svg>
