<svg width="20" height="20" viewBox="0 0 20 20" fill="none" xmlns="http://www.w3.org/2000/svg">
<path d="M10.0402 0C4.55276 0 0.0804022 4.45 0.0804022 9.91C0.0804022 11.66 0.542714 13.36 1.40704 14.86L0 20L5.27638 18.62C6.73367 19.41 8.37186 19.83 10.0402 19.83C15.5276 19.83 20 15.38 20 9.92C20 7.27 18.9648 4.78 17.0854 2.91C15.206 1.03 12.7035 0 10.0402 0ZM10.0503 1.67C12.2613 1.67 14.3317 2.53 15.8995 4.09C17.4573 5.65 18.3216 7.72 18.3216 9.92C18.3216 14.46 14.603 18.15 10.0402 18.15C8.55276 18.15 7.09548 17.76 5.82915 17L5.52764 16.83L2.39196 17.65L3.22613 14.61L3.02513 14.29C2.201 13 1.75879 11.47 1.75879 9.91C1.76884 5.37 5.47739 1.67 10.0503 1.67ZM6.51256 5.33C6.35176 5.33 6.0804 5.39 5.84925 5.64C5.62814 5.89 4.97487 6.5 4.97487 7.71C4.97487 8.93 5.86935 10.1 5.9799 10.27C6.1206 10.44 7.74874 12.94 10.2513 14C10.8442 14.27 11.3065 14.42 11.6683 14.53C12.2613 14.72 12.804 14.69 13.2362 14.63C13.7186 14.56 14.7035 14.03 14.9146 13.45C15.1256 12.87 15.1256 12.38 15.0653 12.27C14.995 12.17 14.8342 12.11 14.5829 12C14.3317 11.86 13.1055 11.26 12.8844 11.18C12.6533 11.1 12.5126 11.06 12.3216 11.3C12.1608 11.55 11.6784 12.11 11.5377 12.27C11.3869 12.44 11.2462 12.46 11.005 12.34C10.7437 12.21 9.9397 11.95 8.99497 11.11C8.25126 10.45 7.75879 9.64 7.60804 9.39C7.48744 9.15 7.59799 9 7.71859 8.89C7.82914 8.78 7.98995 8.6 8.09045 8.45C8.2211 8.31 8.26131 8.2 8.34171 8.04C8.42211 7.87 8.38191 7.73 8.32161 7.61C8.26131 7.5 7.75879 6.26 7.54774 5.77C7.34673 5.29 7.14573 5.35 6.98492 5.34C6.84422 5.34 6.68342 5.33 6.51256 5.33Z" fill="#5653F4"/>
</svg>
