<svg width="51" height="37" viewBox="0 0 51 37" fill="none" xmlns="http://www.w3.org/2000/svg">
<path d="M12.75 37C9.22636 37 6.22045 35.7898 3.73227 33.3694C1.24409 30.9335 0 27.9658 0 24.4662C0 21.46 0.904091 18.7775 2.71227 16.4188C4.53591 14.06 6.91591 12.5569 9.85227 11.9094C10.8259 8.36354 12.7577 5.49604 15.6477 3.30687C18.5532 1.10229 21.8373 0 25.5 0C30.0282 0 33.8609 1.5725 36.9982 4.7175C40.1509 7.84708 41.7273 11.6704 41.7273 16.1875C44.4009 16.4958 46.6109 17.6521 48.3573 19.6562C50.1191 21.6296 51 23.9421 51 26.5938C51 29.4921 49.9877 31.951 47.9632 33.9706C45.9386 35.9902 43.4736 37 40.5682 37H12.75Z" fill="#5653F4"/>
</svg>
