<svg width="51" height="36" viewBox="0 0 51 36" fill="none" xmlns="http://www.w3.org/2000/svg">
<path d="M50.5155 13.6067C50.3625 13.5063 49.0875 12.5272 46.3335 12.5272C45.6195 12.5272 44.9055 12.6025 44.1915 12.728C43.656 9.21339 40.6725 7.43096 40.545 7.35565L39.8055 6.92887L39.3465 7.60669C38.7345 8.51046 38.25 9.53975 38.046 10.5941C37.536 12.6025 37.842 14.5105 38.8875 16.1423C37.638 16.8452 35.598 17.0209 35.1645 17.0209H1.581C0.714 17.0209 0 17.7238 0 18.6025C0 21.4895 0.459 24.3766 1.479 27.0879C2.6265 30.0753 4.3605 32.2845 6.579 33.6402C9.078 35.1464 13.1835 36 17.85 36C19.8645 36 21.9555 35.8243 24.021 35.4477C26.877 34.9456 29.631 33.9665 32.1555 32.5356C34.2465 31.3556 36.108 29.8494 37.689 28.0418C40.3665 25.1046 41.9475 21.7657 43.095 18.8787H43.5795C46.4865 18.8787 48.297 17.7238 49.2915 16.7448C49.9545 16.1423 50.439 15.4142 50.796 14.5607L51 13.9582L50.5155 13.6067ZM4.7175 16.092H9.2055C9.4095 16.092 9.6135 15.9163 9.6135 15.6904V11.7238C9.6135 11.523 9.435 11.3222 9.2055 11.3222H4.7175C4.488 11.3222 4.3095 11.4979 4.3095 11.7238V15.6904C4.335 15.9163 4.488 16.092 4.7175 16.092ZM10.914 16.092H15.402C15.606 16.092 15.81 15.9163 15.81 15.6904V11.7238C15.81 11.523 15.6315 11.3222 15.402 11.3222H10.914C10.6845 11.3222 10.506 11.4979 10.506 11.7238V15.6904C10.5315 15.9163 10.6845 16.092 10.914 16.092ZM17.2125 16.092H21.675C21.93 16.092 22.1085 15.9163 22.1085 15.6904V11.7238C22.1085 11.523 21.9555 11.3222 21.675 11.3222H17.2125C17.0085 11.3222 16.83 11.4979 16.83 11.7238V15.6904C16.83 15.9163 16.983 16.092 17.2125 16.092ZM23.4345 16.092H27.948C28.152 16.092 28.3305 15.9163 28.3305 15.6904V11.7238C28.3305 11.523 28.1775 11.3222 27.948 11.3222H23.4345C23.2305 11.3222 23.052 11.4979 23.052 11.7238V15.6904C23.052 15.9163 23.2305 16.092 23.4345 16.092ZM10.914 10.4686H15.402C15.606 10.4686 15.81 10.2427 15.81 10.0167V6.07531C15.81 5.84937 15.6315 5.67364 15.402 5.67364H10.914C10.6845 5.67364 10.506 5.82427 10.506 6.07531V10.0167C10.5315 10.2427 10.6845 10.4686 10.914 10.4686ZM17.2125 10.4686H21.675C21.93 10.4686 22.1085 10.2427 22.1085 10.0167V6.07531C22.1085 5.84937 21.9555 5.67364 21.675 5.67364H17.2125C17.0085 5.67364 16.83 5.82427 16.83 6.07531V10.0167C16.83 10.2427 16.983 10.4686 17.2125 10.4686ZM23.4345 10.4686H27.948C28.152 10.4686 28.3305 10.2427 28.3305 10.0167V6.07531C28.3305 5.84937 28.152 5.67364 27.948 5.67364H23.4345C23.2305 5.67364 23.052 5.82427 23.052 6.07531V10.0167C23.052 10.2427 23.2305 10.4686 23.4345 10.4686ZM23.4345 4.74477H27.948C28.152 4.74477 28.3305 4.56904 28.3305 4.3431V0.426778C28.3305 0.175732 28.152 0 27.948 0H23.4345C23.2305 0 23.052 0.150628 23.052 0.426778V4.3431C23.052 4.54393 23.2305 4.74477 23.4345 4.74477ZM29.7075 16.092H34.1955C34.425 16.092 34.6035 15.9163 34.6035 15.6904V11.7238C34.6035 11.523 34.425 11.3222 34.1955 11.3222H29.7075C29.5035 11.3222 29.325 11.4979 29.325 11.7238V15.6904C29.325 15.9163 29.5035 16.092 29.7075 16.092Z" fill="#5653F4"/>
</svg>
