<svg width="34" height="52" viewBox="0 0 34 52" fill="none" xmlns="http://www.w3.org/2000/svg">
<path fill-rule="evenodd" clip-rule="evenodd" d="M7.37936 18.56C3.30397 18.56 0.000457637 21.7795 0.000457637 25.7514C0.000457637 29.7236 3.30411 32.9435 7.37936 32.9435H14.7582V25.8964C14.7576 25.8483 14.7573 25.7998 14.7573 25.7514C14.7573 25.7032 14.7576 25.6548 14.7582 25.6066V18.56H7.37936ZM14.7582 14.384H7.37936C3.30411 14.384 0.000457637 11.164 0.000457637 7.19197C0.000457637 3.21997 3.30411 0 7.37936 0H14.7582V14.384ZM19.0427 0V14.3839L26.4198 14.3835C30.495 14.3835 33.7998 11.1639 33.7998 7.19197C33.7998 3.21997 30.4961 0 26.4207 0H19.0427ZM26.4201 18.5595C22.3847 18.5599 19.1058 21.7176 19.0427 25.6361V25.8666C19.1058 29.7857 22.3849 32.9435 26.4207 32.9435C30.4961 32.9435 33.7998 29.7236 33.7998 25.7514C33.7998 21.7795 30.4953 18.5595 26.4201 18.5595ZM7.37936 37.1195C3.30423 37.1195 0 40.34 0 44.3122C0 48.2844 3.30363 51.5044 7.3789 51.5044C11.4543 51.5044 14.7579 48.2844 14.7579 44.3122L14.7582 37.1195H7.37936Z" fill="#5653F4"/>
</svg>
