<svg width="52" height="52" viewBox="0 0 52 52" fill="none" xmlns="http://www.w3.org/2000/svg">
<path d="M50.5273 23.4562L28.0396 0.970259C27.4386 0.370931 26.6091 0 25.6921 0C24.7751 0 23.9456 0.370931 23.3446 0.970259L18.6856 5.6378L24.6085 11.5607C24.9863 11.4284 25.4208 11.3529 25.8741 11.3529C28.0534 11.3529 29.8187 13.1182 29.8187 15.2975C29.8187 15.7594 29.7397 16.2007 29.5937 16.6129L29.6023 16.5854L35.3071 22.2936C35.6883 22.158 36.1297 22.079 36.5882 22.079C38.7657 22.079 40.5311 23.8443 40.5311 26.0218C40.5311 28.1993 38.7657 29.9647 36.5882 29.9647C34.4107 29.9647 32.6453 28.1993 32.6453 26.0218C32.6453 25.4843 32.7535 24.9726 32.9476 24.5055L32.9373 24.5312L27.5966 19.218V33.2206C28.9086 33.8818 29.793 35.2178 29.793 36.7599C29.793 38.9409 28.0242 40.7096 25.8432 40.7096C23.6623 40.7096 21.8935 38.9409 21.8935 36.7599C21.8935 35.6712 22.3331 34.6872 23.0458 33.9728C23.4081 33.6104 23.8392 33.3168 24.3183 33.1107L24.344 33.1004V18.9604C22.8981 18.3525 21.9021 16.946 21.9021 15.3095C21.9021 14.76 22.0137 14.2379 22.2163 13.7622L22.206 13.788L16.3862 7.94066L0.965107 23.3515C0.367496 23.9542 0 24.7837 0 25.7007C0 26.6177 0.369213 27.4472 0.966824 28.0499L23.4562 50.5324C24.0555 51.1335 24.885 51.5044 25.802 51.5044C26.719 51.5044 27.5468 51.1335 28.1478 50.5324L50.5307 28.1495C51.1318 27.5502 51.5044 26.719 51.5044 25.8037C51.5044 24.8884 51.1318 24.0573 50.5307 23.4579L50.5273 23.4562Z" fill="#5653F4"/>
</svg>
