<svg width="52" height="41" viewBox="0 0 52 41" fill="none" xmlns="http://www.w3.org/2000/svg">
<path d="M15.2606 27.8982L23.0929 25.733L24.1513 14.0449H10.2186L9.87222 10.1553H24.4977L24.8826 6.34225H5.63852L6.71619 17.8579H19.9754L19.5328 22.8014L15.2606 23.9511L10.9884 22.8014L10.719 19.6207H6.87014L7.42822 25.733L15.2606 27.8982ZM0 0H30.5211L27.7692 31.0406L15.2606 34.4896L2.75191 31.0406L0 0Z" fill="#5653F4"/>
<path d="M51.5044 9.58044L49.0003 37.257L38.1512 40.2378L27.302 37.257L24.7984 9.58044H51.5044ZM46.4586 15.208H29.6771L30.0819 18.5502H38.5942L30.3764 22.0426L30.6339 25.3095L42.1653 25.3474L41.9077 29.7034L38.1414 30.7854V30.782L38.1106 30.7908L34.4733 29.8538L34.2525 27.1498H30.8548L31.2964 32.3698L38.1415 34.4354V34.4317L38.1539 34.4354L44.9623 32.4074L45.8455 22.0426H38.1226L38.1415 22.0342L46.1277 18.5502L46.4586 15.208Z" fill="#5653F4"/>
</svg>
