<svg width="52" height="52" viewBox="0 0 52 52" fill="none" xmlns="http://www.w3.org/2000/svg">
<path d="M0 0H51.5044V51.5044H0V0ZM13.5342 43.0348C14.6788 45.467 16.9392 47.4699 20.8021 47.4699C25.0941 47.4699 28.0413 45.1808 28.0413 40.1734V23.6348H23.177V40.059C23.177 42.5198 22.1755 43.1493 20.6018 43.1493C18.9422 43.1493 18.2555 42.0047 17.4829 40.6599L13.5342 43.0348ZM30.6451 42.5198C32.0758 45.3239 34.9658 47.4699 39.4867 47.4699C44.0649 47.4699 47.4985 45.095 47.4985 40.7171C47.4985 36.6826 45.1808 34.8799 41.0605 33.1059L39.8587 32.5909C37.7699 31.7038 36.8829 31.1029 36.8829 29.6723C36.8829 28.4991 37.7699 27.5835 39.2006 27.5835C40.574 27.5835 41.4897 28.1844 42.3195 29.6723L46.0678 27.1829C44.4941 24.436 42.2622 23.3773 39.2006 23.3773C34.8799 23.3773 32.1044 26.1242 32.1044 29.7581C32.1044 33.7068 34.4221 35.5667 37.913 37.0546L39.1147 37.5696C41.3466 38.5425 42.6628 39.1434 42.6628 40.8029C42.6628 42.1764 41.3752 43.1779 39.3723 43.1779C36.9973 43.1779 35.6239 41.9475 34.5938 40.2307L30.6451 42.5198Z" fill="#5653F4"/>
</svg>
