<svg width="42" height="58" viewBox="0 0 42 58" fill="none" xmlns="http://www.w3.org/2000/svg">
<path d="M33.7036 11.8247C33.7036 11.8247 14.281 16.7806 23.5948 27.7069C26.3492 30.9239 22.8849 33.8221 22.8849 33.8221C22.8849 33.8221 29.8418 30.1993 26.6047 25.5622C23.5948 21.3018 21.3231 19.1861 33.7036 11.8247ZM21.0108 15.3025C32.511 6.02827 26.6047 0 26.6047 0C28.9899 9.56408 18.1996 12.4623 14.3094 18.4326C11.6402 22.4901 15.6156 26.8664 20.9256 31.8803C18.9095 26.9533 11.7822 22.7219 21.0108 15.3025ZM13.4575 44.8353C4.7117 47.3277 18.7959 52.4575 29.8986 47.6175C28.8196 47.1828 27.7689 46.6611 26.7751 46.0525C22.9133 46.9509 18.9379 47.1248 15.0193 46.5742C11.2995 46.1105 13.4575 44.8353 13.4575 44.8353ZM28.564 39.9663C23.5948 41.0676 18.4552 41.3284 13.4008 40.7198C9.68093 40.343 12.123 38.4882 12.123 38.4882C2.46845 41.7632 17.4613 45.4439 30.8641 41.4444C30.0406 41.1256 29.2455 40.5749 28.564 39.9663ZM38.2753 49.5304C38.2753 49.5304 39.8939 50.8925 36.5432 51.9359C30.069 53.9066 9.76612 54.5153 4.14379 52.0228C2.1277 51.1244 5.93271 49.8781 7.12533 49.6173C7.77843 49.4434 8.43152 49.3854 9.08462 49.3854C6.84137 47.8204 -5.48232 52.5735 2.86599 53.9066C25.4973 57.6743 44.1532 52.1677 38.2753 49.5304ZM30.4949 35.4451C31.3184 34.8944 32.1986 34.4307 33.1073 34.0249C33.1073 34.0249 28.8196 34.7785 24.5318 35.1842C19.9885 35.6479 15.4168 35.7059 10.8735 35.3581C4.20058 34.4597 14.5366 31.8803 14.5366 31.8803C11.4131 31.8803 8.34634 32.6338 5.56357 34.0539C-0.257529 36.9521 20.0453 38.2563 30.4949 35.4451ZM33.0505 42.4587C32.9937 42.5747 32.9369 42.6616 32.8234 42.7485C47.0496 38.9519 41.8248 29.3009 35.0098 31.7064C34.6407 31.8803 34.3283 32.1121 34.1295 32.4309C34.5271 32.286 34.9246 32.1701 35.3506 32.0831C38.758 31.3876 43.6421 36.8072 33.0505 42.4587ZM33.4197 55.8195C24.8726 57.3265 16.1267 57.4425 7.52287 56.2252C7.52287 56.2252 8.82907 57.3265 15.502 57.7613C25.7245 58.4279 41.4272 57.3845 41.7964 52.4575C41.8815 52.4865 41.1433 54.3414 33.4197 55.8195Z" fill="#5653F4"/>
</svg>
