<svg width="32" height="51" viewBox="0 0 32 51" fill="none" xmlns="http://www.w3.org/2000/svg">
<path d="M25.0769 27.9735C23.3333 27.9735 21.7436 28.611 20.5128 29.682L17.2051 27.7695C17.4359 27.03 17.5385 26.2395 17.5385 25.4235C17.5385 24.6075 17.4359 23.817 17.2821 23.0775L20.4359 21.216C21.6667 22.338 23.3077 22.95 25.0769 22.95C28.8974 22.95 32 19.9155 32 16.116C32 12.3165 28.8974 9.2565 25.0769 9.2565C21.2564 9.2565 18.1538 12.342 18.1538 16.1415C18.1538 16.575 18.2051 17.085 18.2821 17.544L15.0769 19.38C13.9744 18.2325 12.5128 17.391 10.8718 16.9575V13.413C13.6667 12.5205 15.6923 9.9195 15.6923 6.8595C15.6923 3.06 12.5897 0 8.76923 0C4.94872 0 1.89744 3.06 1.89744 6.8595C1.89744 9.9195 3.84615 12.495 6.61538 13.413V16.983C2.82051 17.952 0 21.3435 0 25.4235C0 29.5035 2.82051 32.9205 6.61538 33.864V37.5615C3.84615 38.4795 1.89744 41.055 1.89744 44.115C1.89744 47.9145 4.94872 51 8.76923 51C12.5897 51 15.6923 47.9145 15.6923 44.115C15.6923 41.055 13.6667 38.454 10.8718 37.5615V33.8895C12.5128 33.4815 13.9487 32.64 15.0769 31.4925L18.3077 33.354C18.2051 33.8385 18.1538 34.323 18.1538 34.833C18.1538 38.6325 21.2564 41.718 25.0769 41.718C28.8974 41.718 32 38.6325 32 34.833C32 31.0335 28.8974 27.9735 25.0769 27.9735ZM25.0769 12.75C26.9744 12.75 28.4872 14.2545 28.4872 16.116C28.4872 17.9775 26.9744 19.533 25.0769 19.533C23.1795 19.533 21.6667 18.003 21.6667 16.116C21.6667 14.229 23.1795 12.75 25.0769 12.75ZM5.35897 6.8595C5.35897 4.9725 6.8718 3.4425 8.76923 3.4425C10.6667 3.4425 12.1538 4.9725 12.1538 6.8595C12.1538 8.7465 10.6667 10.2765 8.76923 10.2765C6.8718 10.2765 5.35897 8.7465 5.35897 6.8595ZM12.1538 44.115C12.1538 46.002 10.6667 47.532 8.76923 47.532C6.8718 47.532 5.35897 46.002 5.35897 44.115C5.35897 42.228 6.8718 40.698 8.76923 40.698C10.6667 40.698 12.1538 42.228 12.1538 44.115ZM8.76923 30.3195C6.05128 30.3195 3.84615 28.1265 3.84615 25.4235C3.84615 22.7205 6.05128 20.5275 8.76923 20.5275C11.4872 20.5275 13.6923 22.7205 13.6923 25.4235C13.6923 28.1265 11.4872 30.3195 8.76923 30.3195ZM25.0769 38.25C23.1795 38.25 21.6667 36.72 21.6667 34.833C21.6667 32.946 23.1795 31.4415 25.0769 31.4415C26.9744 31.4415 28.4872 32.9715 28.4872 34.833C28.4872 36.6945 26.9744 38.25 25.0769 38.25Z" fill="#5653F4"/>
</svg>
