<svg width="51" height="50" viewBox="0 0 51 50" fill="none" xmlns="http://www.w3.org/2000/svg">
<path d="M29.7552 28.7473C29.3098 29.0224 29.1119 29.5474 29.3098 29.9975L31.4374 35.2732C33.4908 33.948 35.0494 31.9727 35.8658 29.6475L30.3489 28.7473H29.7552ZM21.7891 29.4724C21.6407 29.0474 21.2696 28.7473 20.849 28.7473H20.6511L15.159 29.6725C15.9754 31.9727 17.534 33.923 19.5873 35.2482L21.6902 30.0725V29.9975C21.7891 29.8725 21.7891 29.6475 21.7891 29.4724ZM26.3164 31.4977C26.069 31.0476 25.5 30.8726 25.0547 31.1226C24.8815 31.2477 24.7578 31.3227 24.6836 31.4977H24.6589L21.9623 36.4233C23.8919 37.0734 25.97 37.1984 27.9739 36.7233C28.3203 36.6483 28.6914 36.5483 29.0377 36.4233L26.3411 31.4977H26.3164ZM34.8514 20.0713L30.6952 23.7467L30.72 23.8217C30.3242 24.1718 30.2747 24.7718 30.621 25.1469C30.7447 25.2969 30.8932 25.3969 31.0663 25.4469L31.0911 25.4719L36.4595 27.0221C36.6327 24.5968 36.1131 22.1465 34.8514 20.0713ZM27.1575 20.4713C27.1823 20.9964 27.6028 21.3964 28.1224 21.3714C28.3203 21.3714 28.4934 21.3214 28.6419 21.2464H28.6666L33.1939 17.971C31.4622 16.2458 29.2109 15.1706 26.8359 14.8706L27.1575 20.4713ZM22.3581 21.2464C22.7787 21.5214 23.3477 21.4464 23.6446 21.0214C23.7682 20.8714 23.8177 20.6963 23.8425 20.4963H23.8672L24.1641 14.8706C23.793 14.9206 23.4219 14.9956 23.0261 15.0706C21.0469 15.5207 19.2162 16.5208 17.7813 17.971L22.3334 21.2464H22.3581ZM19.9089 25.4719C20.4037 25.3469 20.7006 24.8219 20.5521 24.3218C20.5521 24.1218 20.4284 23.9717 20.28 23.8467V23.8217L16.1238 19.9962C14.8374 22.1465 14.2931 24.5968 14.5652 27.0471L19.9089 25.4969V25.4719ZM23.9662 27.1221L25.5 27.8722L27.0338 27.1221L27.4049 25.4469L26.3411 24.1218H24.6341L23.5703 25.4469L23.9662 27.1221ZM50.9072 30.4226L46.5284 11.2452C46.3057 10.195 45.613 9.34492 44.6977 8.89486L26.9596 0.31879C26.0443 -0.106263 24.9557 -0.106263 24.0156 0.31879L6.30233 8.89486C5.38697 9.34492 4.69428 10.195 4.47162 11.2452L0.0927722 30.4226C-0.0309241 30.9226 -0.0309241 31.4227 0.0927722 31.8977C0.117512 32.0478 0.16699 32.1978 0.216468 32.3478C0.290686 32.5728 0.414383 32.8229 0.538079 33.0229C0.612297 33.1229 0.661775 33.2229 0.760732 33.2979L13.0067 48.7498C13.0561 48.7498 13.1304 48.8499 13.1304 48.8999C13.3778 49.1249 13.6004 49.2999 13.8231 49.4499C14.1199 49.65 14.4663 49.8 14.8126 49.875C15.0848 50 15.3816 50 15.6043 50H35.6926C35.8658 50 36.0389 49.925 36.1874 49.875C36.3111 49.85 36.4348 49.8 36.5337 49.775C36.6327 49.725 36.7069 49.7 36.8058 49.65C36.9295 49.6 37.0532 49.5249 37.1769 49.4499C37.4738 49.2499 37.7459 48.9999 37.9933 48.7498L38.3644 48.2498L50.2393 33.2979C50.4867 32.9979 50.6598 32.6728 50.7835 32.3478C50.833 32.1978 50.8825 32.0478 50.9072 31.8977C51.0309 31.4227 51.0309 30.8976 50.9072 30.4226ZM32.5259 37.8985C32.5754 38.0485 32.6249 38.1985 32.6991 38.3235C32.6002 38.5236 32.5507 38.7486 32.6249 38.9736C32.9218 39.5737 33.1939 40.1238 33.565 40.6738C33.7629 40.9489 33.9608 41.2489 34.1587 41.5239C34.1587 41.599 34.233 41.724 34.2577 41.824C34.5546 42.324 34.4061 42.9741 33.8866 43.2992C33.3671 43.6242 32.7239 43.4242 32.427 42.9241C32.4023 42.8491 32.3775 42.7991 32.3528 42.7241C32.3033 42.6491 32.2538 42.4991 32.2043 42.4991C32.0806 42.124 31.9817 41.799 31.9075 41.4739C31.6848 40.8489 31.4869 40.2488 31.1653 39.6737C31.0416 39.4987 30.8437 39.3737 30.6458 39.3237L30.4479 38.9236C27.2565 40.1238 23.7682 40.1238 20.6264 38.8986L20.379 39.3487C20.2058 39.3737 20.0326 39.4487 19.9089 39.5737C19.5626 40.1738 19.3152 40.7988 19.0925 41.4989C19.0183 41.824 18.9194 42.149 18.7957 42.4991C18.7462 42.4991 18.6967 42.6741 18.6472 42.7491C18.4493 43.2992 17.8556 43.5992 17.2866 43.3992C16.7423 43.1992 16.4454 42.5991 16.6433 42.024C16.6681 41.949 16.7176 41.899 16.7423 41.824C16.8413 41.749 16.8413 41.624 16.8413 41.5489C17.0639 41.2489 17.2371 40.9739 17.435 40.6738C17.8308 40.1488 18.1524 39.5487 18.3998 38.9486C18.4246 38.7486 18.3998 38.5236 18.3256 38.3235L18.4988 37.8735C15.6043 36.1233 13.4272 33.3979 12.3882 30.1475L11.8934 30.2225C11.745 30.0975 11.5223 29.9975 11.3244 29.9975C10.6564 30.1225 10.0627 30.3225 9.41948 30.5476C9.14734 30.6976 8.82573 30.8226 8.50412 30.9226C8.4299 30.9476 8.33095 30.9726 8.18251 30.9976C7.63825 31.1726 7.04451 30.8726 6.84659 30.3225C6.67342 29.7475 6.94555 29.1474 7.53929 28.9474C7.58877 28.9474 7.66299 28.9224 7.73721 28.9224V28.8974H7.76194L8.03408 28.8474C8.38043 28.7473 8.72678 28.7473 9.04839 28.7473C9.69161 28.7473 10.3348 28.5973 10.9533 28.4473C11.1512 28.3223 11.2997 28.1723 11.4234 27.9722L11.8934 27.8472C11.3739 24.4468 12.1408 21.0214 14.021 18.171L13.6746 17.871C13.6746 17.646 13.6004 17.4209 13.4767 17.2459C12.9819 16.8209 12.4624 16.4458 11.8934 16.1208C11.5965 15.9707 11.2997 15.7957 11.0028 15.5957C10.9533 15.5457 10.8544 15.4707 10.8049 15.4207L10.7801 15.3957C10.2853 14.9956 10.1617 14.3455 10.508 13.8205C10.7307 13.5704 11.0275 13.4454 11.3739 13.4454C11.646 13.4704 11.8934 13.5704 12.1161 13.7455L12.3387 13.9205C12.5861 14.1455 12.8088 14.4206 13.0314 14.6706C13.4767 15.1456 13.9468 15.5957 14.4663 15.9707C14.6642 16.0708 14.8869 16.0958 15.1095 16.0458L15.4806 16.3208C17.336 14.3205 19.7605 12.9204 22.4076 12.3203C23.0261 12.1703 23.694 12.0703 24.3373 12.0203L24.362 11.5702C24.5352 11.4202 24.6341 11.2452 24.7083 10.9951C24.7331 10.345 24.6836 9.69496 24.5846 9.06988C24.5104 8.74484 24.4609 8.3948 24.4362 8.04476V7.74472C24.3867 7.14464 24.8073 6.61958 25.401 6.54457C25.9948 6.46956 26.4896 6.91961 26.5638 7.49469V8.04476C26.539 8.3948 26.4896 8.74484 26.4154 9.06988C26.3164 9.69496 26.2669 10.345 26.2917 10.9951C26.3411 11.2452 26.4648 11.4202 26.638 11.5452L26.6627 12.0203C30.0273 12.3203 33.1444 13.8455 35.4699 16.3208L35.8658 16.0208C36.0884 16.0708 36.3111 16.0458 36.509 15.9457C37.0285 15.5707 37.5233 15.1206 37.9438 14.6456C38.1665 14.3955 38.3892 14.1455 38.6365 13.8955C38.7108 13.8455 38.8097 13.7455 38.8839 13.7455C39.3045 13.2954 39.9725 13.2954 40.3436 13.7455C40.8136 14.1455 40.7889 14.8206 40.3436 15.2457C40.3436 15.2957 40.2693 15.3457 40.1951 15.3957C40.1456 15.4457 40.0467 15.5207 39.9725 15.5707C39.7003 15.7707 39.4035 15.9457 39.1066 16.0958C38.5376 16.4208 37.9933 16.7959 37.5233 17.2209C37.3748 17.3959 37.3006 17.5959 37.3254 17.821L36.9295 18.171C38.8345 20.9964 39.6014 24.4468 39.1066 27.8222L39.5766 27.9472C39.6756 28.1473 39.8488 28.2973 40.0467 28.3973C40.6652 28.5723 41.3084 28.6723 41.9516 28.7473H42.9659C43.0401 28.8224 43.1638 28.8474 43.2628 28.8724C43.8565 28.9474 44.2524 29.4974 44.1781 30.0975C44.0544 30.6726 43.5844 31.0976 42.9907 31.0226C42.9164 30.9976 42.8175 30.9976 42.8175 30.9726V30.9476C42.6691 30.9476 42.5701 30.9226 42.4711 30.8976C42.1495 30.7976 41.8527 30.6726 41.5805 30.5226C40.9373 30.2725 40.3436 30.0975 39.6756 29.9975C39.4529 29.9975 39.255 29.9975 39.1066 30.1975C38.9334 30.1725 38.785 30.1475 38.6365 30.1225C37.6222 33.3979 35.3957 36.1483 32.5259 37.8985Z" fill="#5653F4"/>
</svg>
