<svg width="52" height="52" viewBox="0 0 52 52" fill="none" xmlns="http://www.w3.org/2000/svg">
<path fill-rule="evenodd" clip-rule="evenodd" d="M30.3375 0C29.9835 0.00401998 29.6325 0.066164 29.2987 0.183944C32.2661 2.13008 28.7829 4.95546 30.4039 7.35777C30.2905 6.55362 30.4182 5.73396 30.771 5.00225C31.1237 4.27055 31.6857 3.65963 32.3858 3.24662C32.9108 2.81067 33.246 2.65432 33.1337 1.93326C32.9569 0.752333 31.3801 0 30.3375 0ZM34.5741 0.76153C34.1652 2.82722 33.6531 2.90264 32.1372 4.23256C31.5453 4.69761 31.1275 5.34812 30.951 6.07925C30.7746 6.81039 30.8498 7.57955 31.1646 8.26278C24.9018 5.83471 16.8744 4.36684 10.9893 8.56813C8.87284 10.0783 7.57977 12.247 4.96967 13.1318C3.2824 13.7075 1.62461 13.5383 0.570997 15.2085C0.184313 15.6908 -0.0176869 16.2949 0.00121601 16.9124C0.0201189 17.53 0.258688 18.1206 0.674148 18.5784C0.987286 18.9003 1.59514 19.1063 1.84565 19.4337C1.99117 19.6177 1.98749 19.8016 2.12564 20.0463C2.3692 20.6167 2.72212 21.1341 3.16452 21.5693C3.43345 21.7919 4.36549 22.0089 4.52391 22.2462C4.721 22.5424 4.20524 23.7178 4.63811 23.9017C4.93098 24.036 5.78383 22.5332 5.86672 22.4007C5.69725 23.5835 5.47437 25.6823 6.80613 23.9348C7.43793 23.1052 7.47661 22.8312 8.53944 22.6472C10.6371 22.2885 12.7864 22.3678 14.8517 22.8802C16.9171 23.3926 18.8537 24.3269 20.5393 25.6242C22.225 26.9216 23.623 28.5537 24.6452 30.4177C25.6675 32.2817 26.2917 34.3371 26.4786 36.4541C26.2796 35.5344 25.0768 34.0628 23.9569 34.4123C23.4798 34.5595 23.303 35.3817 22.9898 35.8581C22.5945 36.4626 22.1066 37.0014 21.5439 37.4547C21.64 36.563 21.5952 35.6617 21.4113 34.7839C21.076 36.1598 20.4037 38.4425 18.7109 38.0728C18.147 37.9868 17.6186 37.7443 17.1861 37.3729C16.7536 37.0014 16.4343 36.5161 16.2647 35.9722C16.0455 34.5742 17.5247 32.9352 15.1467 32.8193C10.3759 32.5857 11.4793 39.5922 14.2957 41.4187C13.6484 41.4903 13.017 41.6661 12.426 41.9393C14.2137 42.9767 16.228 43.5624 18.2938 43.6456C20.3597 43.7287 22.4147 43.3069 24.2802 42.4166C26.1456 41.5263 27.7652 40.1945 28.998 38.537C30.2309 36.8795 31.0397 34.9465 31.3543 32.9058C32.0104 35.891 31.5889 39.0117 30.1644 41.7167C29.5682 42.8475 28.8043 43.8819 27.8987 44.7849C27.3461 45.3368 26.252 45.9438 25.8928 46.5158C28.1283 46.2207 30.3129 45.6216 32.3858 44.7353C30.2402 47.655 27.3884 49.9839 24.0969 51.5044C27.6312 51.2546 31.0477 50.1302 34.0383 48.2327C37.0289 46.3352 39.4995 43.7242 41.2274 40.6351C40.6767 43.7246 39.4537 46.6558 37.6447 49.2217C40.0779 47.595 42.1479 45.4835 43.7249 43.0199C45.3019 40.5562 46.3518 37.7935 46.8086 34.9053C47.2613 37.0196 47.3911 39.1902 47.1936 41.3433C49.193 38.5702 50.5438 35.3845 51.1467 32.0208C51.7495 28.6571 51.5889 25.2012 50.6768 21.9078C49.9787 19.3477 48.9319 16.8955 47.5657 14.6199C47.0369 13.7331 46.4582 12.877 45.8324 12.0557C45.5874 11.7375 44.2777 10.5731 44.2777 10.2163C44.2667 10.2518 44.2575 10.2518 44.2501 10.2163C44.2501 16.2239 37.8031 19.9856 32.4043 18.4257C34.4942 18.2619 36.4656 17.391 37.9928 15.9569C39.5201 14.5227 40.5116 12.6112 40.8037 10.5382C41.0501 8.44187 40.5653 6.32482 39.4308 4.54391C38.2964 2.763 36.5799 1.42715 34.5741 0.76153Z" fill="#5653F4"/>
</svg>
