<svg width="46" height="52" viewBox="0 0 46 52" fill="none" xmlns="http://www.w3.org/2000/svg">
<path d="M22.5332 0C21.8572 0 21.1562 0.177601 20.5803 0.507433L1.95288 11.4172C0.751106 12.1276 0 13.447 0 14.8678V36.6366C0 38.0575 0.751106 39.3768 1.95288 40.0872L6.83507 42.9288C9.21357 44.0959 10.0147 44.1213 11.1164 44.1213C14.6215 44.1213 16.6495 41.9647 16.6495 38.2097V16.7199C16.6495 16.4154 16.3991 16.1617 16.0987 16.1617H13.7703C13.4448 16.1617 13.1944 16.4154 13.1944 16.7199V38.2097C13.1944 39.8842 11.4919 41.5334 8.7629 40.1379L3.63035 37.1694C3.45509 37.0426 3.35494 36.8396 3.35494 36.6366V14.8678C3.35494 14.6394 3.45509 14.4365 3.63035 14.335L22.2578 3.45054C22.408 3.34906 22.6584 3.34906 22.8086 3.45054L41.436 14.335C41.6113 14.4365 41.7114 14.6394 41.7114 14.8678V36.6366C41.7114 36.8396 41.6113 37.0426 41.436 37.1694L22.8086 48.0539C22.6584 48.1554 22.408 48.1554 22.2327 48.0539L17.5258 45.1615C17.3255 45.0854 17.1252 45.06 17 45.1361C15.6731 45.8973 15.4227 46.0495 14.1959 46.4301C13.8955 46.5316 13.4198 46.7092 14.3712 47.242L20.5803 50.9716C21.1812 51.3268 21.8321 51.5044 22.5332 51.5044C23.2342 51.5044 23.8852 51.3268 24.4861 50.9716L43.1135 40.0872C44.3153 39.3768 45.0664 38.0575 45.0664 36.6366V14.8678C45.0664 13.447 44.3153 12.1276 43.1135 11.4172L24.4861 0.507433C23.9102 0.177601 23.2342 0 22.5332 0ZM27.5406 15.6036C22.2327 15.6036 19.0531 17.8616 19.0531 21.6674C19.0531 25.7522 22.2077 26.9447 27.3152 27.4521C33.3992 28.061 33.8749 28.9744 33.8749 30.1922C33.8749 32.2981 32.1974 33.1861 28.2917 33.1861C23.3344 33.1861 22.2828 31.9429 21.9073 29.4565C21.8572 29.2028 21.6319 28.9998 21.3564 28.9998H18.9529C18.6525 28.9998 18.4271 29.2281 18.4271 29.558C18.4271 32.704 20.1296 36.5098 28.2917 36.5098C34.1753 36.5098 37.5553 34.1502 37.5553 30.04C37.5553 25.9552 34.8513 24.8896 29.1179 24.1031C23.3344 23.3419 22.7585 22.936 22.7585 21.5659C22.7585 20.4242 23.2593 18.9019 27.5406 18.9019C31.2961 18.9019 32.7733 19.7391 33.3491 22.3524C33.3992 22.6061 33.6245 22.7837 33.8749 22.7837H36.3035C36.4286 22.7837 36.5789 22.733 36.679 22.6061C36.7792 22.5046 36.8543 22.3524 36.8042 22.2002C36.4537 17.684 33.4993 15.6036 27.5406 15.6036Z" fill="#5653F4"/>
</svg>
