<svg width="54" height="49" viewBox="0 0 54 49" fill="none" xmlns="http://www.w3.org/2000/svg">
<path d="M15.6817 21.9722L7.01047 25.0891C7.12178 26.4616 7.36222 27.8188 7.69838 29.1495L15.9355 26.1867C15.6684 24.8119 15.5726 23.3932 15.6817 21.9722Z" fill="#5653F4"/>
<path d="M54 12.5008C53.3945 11.269 52.6954 10.0768 51.8851 8.95502L43.216 12.0718C44.2245 13.0925 45.0705 14.2385 45.7629 15.4636L54 12.5008Z" fill="#5653F4"/>
<path d="M34.9255 10.0746C36.7287 10.9061 38.2916 12.0411 39.6095 13.3696L48.2785 10.2528C45.8764 6.92479 42.606 4.1423 38.5988 2.29464C26.2052 -3.41551 11.4207 1.90091 5.64133 14.1439C3.77127 18.1053 3.07668 22.3154 3.40171 26.389L12.073 23.2722C12.2177 21.4157 12.6763 19.5571 13.5156 17.7732C17.2713 9.81726 26.8753 6.36609 34.9255 10.0746Z" fill="#5653F4"/>
<path d="M8.23714 28.956L0 31.921C0.756926 34.8883 2.07042 37.7082 3.87368 40.2179L12.5249 37.1077C10.3053 34.8531 8.8271 32.0024 8.23714 28.9582V28.956Z" fill="#5653F4"/>
<path d="M44.1711 25.727C44.0331 27.5812 43.5589 29.4421 42.7151 31.2259C38.9594 39.1819 29.3554 42.6331 21.3052 38.9245C19.4998 38.0909 17.9258 36.9669 16.6123 35.6339L7.96108 38.7464C10.3565 42.0744 13.6247 44.8591 17.6342 46.7067C30.0277 52.4147 44.81 47.0982 50.5894 34.8553C52.4617 30.896 53.1518 26.6882 52.8201 22.6167L44.1711 25.727Z" fill="#5653F4"/>
<path d="M46.3016 15.2679L38.0645 18.2307C39.5939 20.9384 40.3174 24.0575 40.0815 27.1941L48.7327 24.0839C48.4856 21.0154 47.6574 18.0218 46.3016 15.2679Z" fill="#5653F4"/>
</svg>
