<svg width="52" height="52" viewBox="0 0 52 52" fill="none" xmlns="http://www.w3.org/2000/svg">
<path d="M27.4599 34.4189L35.7705 29.5536V19.8377L27.4599 24.6949V34.4189ZM28.2473 34.877L35.7705 39.2744V30.4846L28.2473 34.8852V34.877ZM35.318 18.1143V9.32457L27.7948 13.7138L35.318 18.1046V18.1143ZM27.0074 14.1817L18.6872 19.0404L27.0074 23.9057L35.318 19.0404L27.0074 14.1817ZM26.2103 13.7138L18.6872 9.32457V18.1143L26.2103 13.7138ZM36.5676 29.0857L44.0827 24.6949L36.5676 20.2975V29.0857ZM26.5533 34.4189V24.6949L18.2331 19.8377V29.5536L26.5533 34.4189ZM17.4376 20.2959L9.92247 24.6932L17.4376 29.084V20.2959ZM18.2347 30.4862V39.276L25.7578 34.8787L18.2347 30.4862ZM42.9587 0H8.54569C3.8421 0 0 3.84624 0 8.54195V42.9625C0 47.6663 3.84049 51.5044 8.54569 51.5044H32.1055L25.7482 36.0591L21.1364 45.8158H8.54569C7.00467 45.8158 5.69391 44.5065 5.69391 42.9641V8.54358C5.69391 7.00606 7.00306 5.70007 8.54569 5.70007H42.9587C44.503 5.70007 45.8105 7.00606 45.8105 8.54358V42.9641C45.8105 44.5081 44.503 45.8158 42.9587 45.8158H35.4935L37.8332 51.5044H42.9587C47.6543 51.5044 51.5044 47.668 51.5044 42.9625V8.54195C51.5044 3.84624 47.6543 0 42.9587 0Z" fill="#5653F4"/>
</svg>
