<svg width="52" height="46" viewBox="0 0 52 46" fill="none" xmlns="http://www.w3.org/2000/svg">
<path d="M25.7522 18.1048C28.2196 18.1048 30.2319 20.073 30.2319 22.5332C30.2319 24.8762 28.2196 26.8678 25.7522 26.8678C23.2848 26.8678 21.2725 24.8762 21.2725 22.5332C21.2725 20.073 23.2848 18.1048 25.7522 18.1048ZM14.6608 41.2776C16.17 42.1679 19.4759 40.809 23.2848 37.2944C22.0391 35.912 20.8174 34.4124 19.6675 32.8426C17.7031 32.6552 15.7627 32.374 13.9182 31.9991C12.6964 37.0132 13.1516 40.4575 14.6608 41.2776ZM16.3616 27.8285L15.6669 26.6335C15.4034 27.313 15.1399 27.9925 14.9722 28.6485C15.619 28.7891 16.3377 28.9063 17.0803 29.0234C16.8407 28.6251 16.6012 28.2268 16.3616 27.8285ZM32.0286 26.0478L33.969 22.5332L32.0286 19.0186C31.3099 17.7768 30.5433 16.6756 29.8486 15.5743C28.555 15.504 27.1895 15.504 25.7522 15.504C24.3149 15.504 22.9494 15.504 21.6558 15.5743C20.9611 16.6756 20.1945 17.7768 19.4759 19.0186L17.5355 22.5332L19.4759 26.0478C20.1945 27.2896 20.9611 28.3908 21.6558 29.492C22.9494 29.5623 24.3149 29.5623 25.7522 29.5623C27.1895 29.5623 28.555 29.5623 29.8486 29.492C30.5433 28.3908 31.3099 27.2896 32.0286 26.0478ZM25.7522 10.3025C25.2971 10.8179 24.8179 11.3568 24.3388 11.9895C24.8179 11.9895 25.2731 11.9895 25.7522 11.9895C26.2313 11.9895 26.6865 11.9895 27.1656 11.9895C26.6865 11.3568 26.2074 10.8179 25.7522 10.3025ZM25.7522 34.7639C26.2074 34.2484 26.6865 33.7095 27.1656 33.0769C26.6865 33.0769 26.2313 33.0769 25.7522 33.0769C25.2731 33.0769 24.8179 33.0769 24.3388 33.0769C24.8179 33.7095 25.2971 34.2484 25.7522 34.7639ZM36.8197 3.78879C35.3344 2.89843 32.0286 4.2574 28.2196 7.77197C29.4653 9.15437 30.687 10.6539 31.8369 12.2238C33.8013 12.4112 35.7417 12.6924 37.5862 13.0673C38.808 8.05314 38.3528 4.60886 36.8197 3.78879ZM35.1428 17.2379L35.8375 18.4328C36.101 17.7534 36.3645 17.0739 36.5322 16.4178C35.8854 16.2772 35.1667 16.1601 34.4241 16.0429C34.6637 16.4413 34.9032 16.8396 35.1428 17.2379ZM38.6163 0.719393C42.1378 2.68755 42.5211 7.86569 41.0358 13.9108C47.1206 15.668 51.5044 18.5734 51.5044 22.5332C51.5044 26.4929 47.1206 29.3983 41.0358 31.1556C42.5211 37.2007 42.1378 42.3788 38.6163 44.347C35.1188 46.3151 30.3517 44.0658 25.7522 39.778C21.1527 44.0658 16.3856 46.3151 12.8641 44.347C9.36662 42.3788 8.98333 37.2007 10.4686 31.1556C4.38386 29.3983 0 26.4929 0 22.5332C0 18.5734 4.38386 15.668 10.4686 13.9108C8.98333 7.86569 9.36662 2.68755 12.8641 0.719393C16.3856 -1.24877 21.1527 1.00056 25.7522 5.28834C30.3517 1.00056 35.1188 -1.24877 38.6163 0.719393ZM37.9216 22.5332C38.7361 24.2905 39.4548 26.0478 40.0537 27.8285C45.0843 26.3524 47.9111 24.2436 47.9111 22.5332C47.9111 20.8228 45.0843 18.714 40.0537 17.2379C39.4548 19.0186 38.7361 20.7759 37.9216 22.5332ZM13.5828 22.5332C12.7683 20.7759 12.0496 19.0186 11.4508 17.2379C6.42009 18.714 3.59333 20.8228 3.59333 22.5332C3.59333 24.2436 6.42009 26.3524 11.4508 27.8285C12.0496 26.0478 12.7683 24.2905 13.5828 22.5332ZM35.1428 27.8285C34.9032 28.2268 34.6637 28.6251 34.4241 29.0234C35.1667 28.9063 35.8854 28.7891 36.5322 28.6485C36.3645 27.9925 36.101 27.313 35.8375 26.6335L35.1428 27.8285ZM28.2196 37.2944C32.0286 40.809 35.3344 42.1679 36.8197 41.2776C38.3528 40.4575 38.808 37.0132 37.5862 31.9991C35.7417 32.374 33.8013 32.6552 31.8369 32.8426C30.687 34.4124 29.4653 35.912 28.2196 37.2944ZM16.3616 17.2379C16.6012 16.8396 16.8407 16.4413 17.0803 16.0429C16.3377 16.1601 15.619 16.2772 14.9722 16.4178C15.1399 17.0739 15.4034 17.7534 15.6669 18.4328L16.3616 17.2379ZM23.2848 7.77197C19.4759 4.2574 16.17 2.89843 14.6608 3.78879C13.1516 4.60886 12.6964 8.05314 13.9182 13.0673C15.7627 12.6924 17.7031 12.4112 19.6675 12.2238C20.8174 10.6539 22.0391 9.15437 23.2848 7.77197Z" fill="#5653F4"/>
</svg>
