<svg width="51" height="44" viewBox="0 0 51 44" fill="none" xmlns="http://www.w3.org/2000/svg">
<path d="M50.9857 26.8292C50.9697 27.3185 50.3211 27.8588 49.0014 28.5473C46.2793 29.9673 32.1842 35.7685 29.1784 37.3288C26.1742 38.8971 24.5135 38.8811 22.1388 37.7432C19.7641 36.6148 4.76531 30.5458 2.05913 29.2597C0.714 28.6126 0.0255 28.0723 0 27.5575V32.7117C0 33.2265 0.714 33.7652 2.05913 34.4139C4.76531 35.7096 19.7737 41.769 22.1388 42.8974C24.5135 44.0353 26.1726 44.0513 29.1784 42.483C32.1826 40.9227 46.2777 35.1199 49.0014 33.7015C50.388 32.9875 51.0016 32.4233 51.0016 31.9165C51.0016 31.4351 51.0016 26.8356 51.0016 26.8356C51.0016 26.8276 50.9936 26.8276 50.9857 26.8276V26.8292ZM50.9857 18.4285C50.9602 18.9099 50.3211 19.4501 49.0014 20.1466C46.2793 21.5571 32.1842 27.3599 29.1784 28.9202C26.1742 30.4885 24.5135 30.4725 22.1388 29.3441C19.7641 28.2062 4.76531 22.1468 2.05913 20.8526C0.714 20.2135 0.0255 19.6653 0 19.1505V24.3047C0 24.8195 0.714 25.3677 2.05913 26.0068C4.76531 27.3025 19.7641 33.362 22.1388 34.4983C24.5135 35.6267 26.1726 35.6442 29.1784 34.084C32.1826 32.5157 46.2777 26.7208 49.0014 25.3024C50.388 24.5804 51.0016 24.0162 51.0016 23.5094C51.0016 23.0281 51.0016 18.4285 51.0016 18.4285C51.0016 18.4285 50.9936 18.4285 50.9857 18.4285ZM50.9857 9.70436C51.0112 9.18958 50.3386 8.73377 48.968 8.23492C46.3208 7.26433 32.3005 1.6862 29.6183 0.698079C26.9376 -0.282078 25.8411 -0.24064 22.687 0.889329C19.533 2.02727 4.6155 7.87792 1.96031 8.91545C0.632719 9.4382 -0.0159375 9.91952 0.0095625 10.4343V15.5885C0.0095625 16.1033 0.715594 16.642 2.06869 17.2906C4.76691 18.5863 19.7737 24.6458 22.1483 25.7821C24.5135 26.9105 26.1821 26.928 29.1879 25.3582C32.1842 23.7979 46.2873 17.995 49.011 16.5846C50.3896 15.8626 51.0032 15.2984 51.0032 14.7916C51.0032 14.3103 51.0032 9.70277 51.0032 9.70277L50.9857 9.70436ZM18.2628 14.586L30.0836 12.7771L26.5136 18.0062L18.2628 14.586ZM44.4019 9.87011L36.6578 12.9333L29.6693 10.1697L37.4053 7.11452L44.4019 9.87011ZM23.8823 4.80677L22.7364 2.69824L26.3064 4.09277L29.6677 2.99627L28.7544 5.17174L32.1826 6.45789L27.7663 6.9137L26.7702 9.29636L25.1765 6.63958L20.0717 6.18377L23.8823 4.80677ZM15.0753 7.78708C18.5704 7.78708 21.3929 8.88358 21.3929 10.2271C21.3929 11.5802 18.5624 12.6751 15.0753 12.6751C11.5882 12.6751 8.75766 11.5786 8.75766 10.2271C8.75766 8.88199 11.5882 7.78708 15.0753 7.78708Z" fill="#5653F4"/>
</svg>
