<svg width="52" height="52" viewBox="0 0 52 52" fill="none" xmlns="http://www.w3.org/2000/svg">
<path d="M25.7522 0C29.134 0 32.4828 0.666101 35.6072 1.96027C38.7316 3.25444 41.5705 5.15133 43.9618 7.54265C46.3531 9.93396 48.25 12.7729 49.5441 15.8973C50.8383 19.0217 51.5044 22.3704 51.5044 25.7522C51.5044 32.5821 48.7912 39.1323 43.9618 43.9618C39.1323 48.7912 32.5821 51.5044 25.7522 51.5044C22.3704 51.5044 19.0217 50.8383 15.8973 49.5441C12.7729 48.25 9.93396 46.3531 7.54265 43.9618C2.71317 39.1323 0 32.5821 0 25.7522C0 18.9223 2.71317 12.3721 7.54265 7.54265C12.3721 2.71317 18.9223 0 25.7522 0ZM20.6018 34.3277C21.0138 35.7183 20.9623 37.0059 20.6018 38.1905C20.6018 38.3193 20.4988 38.448 20.4473 38.6283C20.3957 38.6283 20.3442 38.8086 20.267 38.9373C19.9837 39.5554 19.5717 40.1477 19.0824 40.6627C17.5888 42.3109 15.4513 42.9289 14.6015 42.4139C13.6229 41.8473 14.1637 39.5296 15.8634 37.7012C17.7175 35.7441 20.3957 34.4565 20.3957 34.4565L20.6018 34.3277ZM41.8988 11.0219C40.74 6.43805 33.1431 4.94442 25.984 7.49389C21.7091 9.01327 17.0737 11.3825 13.7517 14.4985C9.81159 18.2068 9.16779 21.4258 9.42531 22.765C10.3009 27.5034 16.8419 30.6194 19.5202 32.9113V32.9371C18.7476 33.3234 12.9791 36.2334 11.5885 39.2206C10.1979 42.3624 11.846 44.6286 12.8761 44.9376C16.3269 45.8647 19.8034 44.1908 21.6576 41.3838C23.4603 38.7056 23.3315 35.229 22.5332 33.4779C23.6148 33.2203 24.8766 33.0916 26.4733 33.2719C31.0057 33.8126 31.8812 36.6196 31.701 37.8042C31.5465 38.9888 30.5936 39.6326 30.2846 39.8387C29.9756 40.0189 29.8726 40.0962 29.8983 40.2507C29.9241 40.4567 30.0786 40.4567 30.3361 40.4052C30.7224 40.328 32.7311 39.4524 32.8083 37.2634C32.9113 34.4822 30.2588 31.3919 25.5719 31.4692C23.6405 31.5207 22.4302 31.701 21.5546 32.0357L21.3486 31.804C18.4386 28.7137 13.0821 26.5248 13.3139 22.3529C13.3911 20.8335 13.9062 16.8677 23.6148 12.0263C31.5465 8.06044 37.9072 9.14203 39.0146 11.5885C40.5855 15.0135 35.6153 21.4258 27.3746 22.3529C24.2328 22.7134 22.5589 21.4773 22.1469 21.0396C21.7091 20.6018 21.6576 20.5245 21.5031 20.6018C21.2198 20.782 21.4001 21.1941 21.5031 21.4516C21.7349 22.0954 22.765 23.177 24.4646 23.795C25.984 24.2843 29.6923 24.5676 34.1474 22.8422C39.1434 20.9108 43.0577 15.5286 41.8988 11.0219Z" fill="#5653F4"/>
</svg>
