<svg width="52" height="52" viewBox="0 0 52 52" fill="none" xmlns="http://www.w3.org/2000/svg">
<path d="M46.7528 37.0835C40.4121 45.5411 26.8729 42.6868 18.19 43.0956C18.19 43.0956 16.6517 43.1831 15.1057 43.4376C15.1057 43.4376 15.6913 43.1882 16.4386 42.9285C22.5353 40.8173 25.4168 40.393 29.1226 38.4875C36.0822 34.9183 43.011 27.1395 44.4209 19.0599C41.7706 26.8309 33.7118 33.5194 26.3747 36.2349C21.354 38.0915 12.2705 39.8967 12.2679 39.8967C12.1445 39.8334 12.0221 39.7683 11.9007 39.7013C5.72436 36.6926 5.54459 23.2951 16.7647 18.9776C21.6853 17.085 26.3875 18.1239 31.7061 16.8561C37.3765 15.5061 43.9458 11.2503 46.6141 5.68557C49.6059 14.5778 53.2013 28.4844 46.7528 37.0835ZM46.8606 2.93407C46.1433 4.65632 45.2252 6.28767 44.1256 7.79419C41.7351 5.32722 38.8741 3.36613 35.7124 2.02725C32.5507 0.688376 29.1526 -0.00100713 25.7198 1.10432e-06C11.536 1.10432e-06 2.81027e-06 11.5511 2.81027e-06 25.7509C-0.00165338 29.293 0.728749 32.797 2.14526 36.0427C3.56178 39.2883 5.63375 42.2054 8.23085 44.6102L8.79584 45.1091C8.38403 44.6961 8.15289 44.1362 8.15325 43.5525C8.15361 42.9689 8.38544 42.4093 8.79776 41.9968C9.21009 41.5843 9.76915 41.3526 10.352 41.3527C10.9349 41.3528 11.4939 41.5847 11.906 41.9974C12.3182 42.4101 12.5498 42.9698 12.5499 43.5535C12.55 44.1371 12.3186 44.6969 11.9067 45.1098C11.4947 45.5226 10.9358 45.7547 10.3529 45.7551C9.77005 45.7555 9.2109 45.524 8.79841 45.1117L9.18106 45.4511C13.8047 49.3653 19.6651 51.5102 25.7198 51.5044C39.2744 51.5044 50.4072 40.9407 51.36 27.6101C52.0636 21.0811 50.1375 12.7906 46.8606 2.93407Z" fill="#5653F4"/>
</svg>
