<svg width="52" height="55" viewBox="0 0 52 55" fill="none" xmlns="http://www.w3.org/2000/svg">
<path d="M41.1139 26.3034C36.1847 21.3362 28.2028 21.3644 23.3016 26.3316C18.3724 31.2988 18.3724 39.3422 23.3016 44.2811C27.4746 48.4581 33.9162 49.1918 38.9014 46.0591L47.6115 54.7234L51.5044 50.8005L42.8503 42.0233C46.0151 37.0279 45.2869 30.4803 41.1139 26.3034ZM37.165 40.2735C34.4203 43.0393 29.9952 43.0111 27.2506 40.2735C24.5339 37.5077 24.5339 33.0486 27.2786 30.2828C29.9952 27.5452 34.4203 27.5452 37.165 30.2828C39.8816 33.0486 39.8816 37.5077 37.165 40.2735ZM19.3247 48.2605C17.5042 46.3978 16.0759 44.1682 15.1797 41.7129C6.35753 40.2171 0 36.0119 0 31.0448V39.5115C0 45.7487 10.0264 50.8005 22.4054 50.8005C21.2851 50.0667 20.2489 49.2201 19.3247 48.2605ZM0 16.9335V25.4003C0 30.1416 5.7974 34.2057 14.0034 35.8426C14.0034 35.645 14.0034 35.4757 14.0034 35.2781C14.0034 32.6534 14.5635 30.057 15.6278 27.6863C6.55358 26.2469 0 21.9853 0 16.9335ZM22.4054 0C10.0264 0 0 5.05183 0 11.289C0 16.9335 8.40203 21.6749 19.1846 22.578H19.3247C22.6855 19.022 27.3346 16.9335 32.2078 16.9335C34.7564 16.9335 37.277 17.4697 39.6015 18.514C42.4862 17.1875 44.4467 14.4499 44.8108 11.289C44.8108 5.05183 34.7844 0 22.4054 0Z" fill="#5653F4"/>
</svg>
