<svg width="52" height="31" viewBox="0 0 52 31" fill="none" xmlns="http://www.w3.org/2000/svg">
<path d="M25.7522 0C18.8764 0 14.6015 3.38937 12.8761 10.1936C15.4513 6.80422 18.4643 5.53002 21.8894 6.37099C23.8465 6.85518 25.2629 8.2568 26.808 9.81132C29.3318 12.3597 32.1903 15.2904 38.6283 15.2904C45.5042 15.2904 49.779 11.901 51.5044 5.09679C48.9292 8.48616 45.9162 9.76036 42.4911 8.91938C40.534 8.43519 39.1434 7.03357 37.5725 5.47905C35.0488 2.93065 32.1903 0 25.7522 0ZM12.8761 15.2904C6.00026 15.2904 1.7254 18.6797 0 25.484C2.57522 22.0946 5.58823 20.8204 9.01327 21.6614C10.9704 22.1456 12.3611 23.5472 13.9319 25.1017C16.4557 27.6501 19.3142 30.5807 25.7522 30.5807C32.628 30.5807 36.9029 27.1914 38.6283 20.3872C36.0531 23.7765 33.0401 25.0507 29.615 24.2098C27.6579 23.7256 26.2673 22.3239 24.6964 20.7694C22.1727 18.221 19.3142 15.2904 12.8761 15.2904Z" fill="#5653F4"/>
</svg>
